<svg xmlns="http://www.w3.org/2000/svg" width="15" height="15" fill="none"><path fill="#9C9C9C" d="M.667 3.333c.366 0 .666-.3.666-.666V2A.67.67 0 0 1 2 1.333h.667c.366 0 .666-.3.666-.666C3.333.3 3.033 0 2.667 0H2C.893 0 0 .893 0 2v.667c0 .366.3.666.667.666Zm2 10H2a.669.669 0 0 1-.667-.666V12A.668.668 0 0 0 0 12v.667c0 1.107.893 2 2 2h.667a.668.668 0 0 0 0-1.333v-.001ZM12.667 0h-.666c-.367 0-.667.3-.667.667 0 .366.3.666.667.666h.666c.367 0 .667.3.667.667v.667c0 .366.3.666.667.666.366 0 .666-.3.666-.666V2c0-1.107-.893-2-2-2Zm1.334 11.333c-.367 0-.667.3-.667.667v.667c0 .367-.3.667-.667.667h-.666c-.367 0-.667.3-.667.666 0 .367.3.667.667.667h.666c1.107 0 2-.893 2-2V12c0-.367-.3-.666-.666-.666v-.001Zm-2.002-2.086V5.42c0-.48-.253-.92-.666-1.153l-3.334-1.92a1.317 1.317 0 0 0-1.333 0L3.333 4.259c-.414.24-.667.68-.667 1.16v3.827c0 .48.253.92.667 1.153l3.333 1.92a1.317 1.317 0 0 0 1.333 0l3.335-1.919A1.32 1.32 0 0 0 12 9.247h-.001ZM6.666 10.78 3.999 9.247V6.16l2.667 1.553v3.067Zm.667-4.22-2.64-1.54 2.64-1.52 2.64 1.52-2.64 1.54Zm3.333 2.687L7.999 10.78V7.713l2.667-1.553v3.087Z"/></svg>