<svg width="32" height="32" viewBox="0 0 32 32" fill="none" xmlns="http://www.w3.org/2000/svg">
<g clip-path="url(#clip0_114_163)">
<circle cx="16" cy="16" r="16" fill="white"/>
<path d="M23.5833 12.0909H22.695L20.8533 6.56C20.7009 6.10394 20.4239 5.70986 20.0597 5.43091C19.6955 5.15196 19.2617 5.00156 18.8167 5H17.0833C16.4875 5 16 5.53182 16 6.18182C16 6.83182 16.4875 7.36364 17.0833 7.36364H18.8167L20.3983 12.0909H15.1875L14.7975 10.9091H14.895C15.4908 10.9091 15.9783 10.3773 15.9783 9.72727C15.9783 9.07727 15.4908 8.54545 14.895 8.54545H11.6667C11.0708 8.54545 10.5833 9.07727 10.5833 9.72727C10.5833 10.3773 11.0708 10.9091 11.6667 10.9091H12.4792L14.4508 16.8182H13.725C13.2483 14.1827 11.2225 12.2327 8.6875 12.1027C5.65417 11.9373 3 14.6909 3 18C3 21.3091 5.38333 23.9091 8.41667 23.9091C11.0817 23.9091 13.2375 21.9118 13.725 19.1818H18.275C18.7517 21.8173 20.7775 23.7673 23.3125 23.8973C26.3458 24.0509 29 21.3091 29 17.9882C29 14.6909 26.6167 12.0909 23.5833 12.0909ZM9.5 19.1818H11.4717C11.0167 20.6355 9.73833 21.64 8.2 21.5336C6.58583 21.4273 5.2425 19.9382 5.16667 18.1655C5.09083 16.0973 6.5425 14.4545 8.41667 14.4545C9.8575 14.4545 11.0383 15.4355 11.4717 16.8182H9.5C8.90417 16.8182 8.41667 17.35 8.41667 18C8.41667 18.65 8.90417 19.1818 9.5 19.1818ZM18.275 16.8182H16.7583L15.9675 14.4545H19.25C18.7733 15.14 18.4267 15.9318 18.275 16.8182ZM23.4533 21.5455C21.785 21.4745 20.3767 19.9264 20.3333 18.0945C20.3117 16.96 20.7558 15.9673 21.4708 15.3055L22.1425 17.3145C22.3483 17.9291 22.9658 18.2482 23.5292 18.0236C24.0925 17.7991 24.385 17.1255 24.1792 16.5109L23.4967 14.4664L23.5075 14.4545C23.9418 14.4384 24.3747 14.5184 24.7799 14.6898C25.1851 14.8612 25.5543 15.1204 25.8651 15.4518C26.1759 15.7831 26.422 16.1798 26.5884 16.6177C26.7548 17.0557 26.8381 17.5259 26.8333 18C26.8333 20.0327 25.3383 21.6164 23.4533 21.5455Z" fill="url(#paint0_linear_114_163)"/>
</g>
<defs>
<linearGradient id="paint0_linear_114_163" x1="16" y1="5" x2="16" y2="23.9091" gradientUnits="userSpaceOnUse">
<stop stop-color="#FFB60D"/>
<stop offset="1" stop-color="#E59317"/>
</linearGradient>
<clipPath id="clip0_114_163">
<rect width="32" height="32" fill="white"/>
</clipPath>
</defs>
</svg>
