<svg width="152" height="39" viewBox="0 0 152 39" fill="none" xmlns="http://www.w3.org/2000/svg">
<path fill-rule="evenodd" clip-rule="evenodd" d="M23.0238 16.85H25.7408C28.5488 16.85 30.0658 20.142 28.2368 22.275L25.5768 25.375C25.8648 27.2136 26.8358 28.8759 28.2958 30.03C29.7571 31.1847 31.5998 31.7466 33.4568 31.6039C35.3138 31.4613 37.049 30.6244 38.3168 29.26C39.5835 27.8961 40.2889 26.1044 40.2918 24.243C40.2915 23.9192 40.3551 23.5985 40.479 23.2993C40.6029 23.0001 40.7845 22.7283 41.0136 22.4994C41.2427 22.2705 41.5146 22.089 41.8139 21.9654C42.1132 21.8418 42.434 21.7784 42.7578 21.779C43.4115 21.7792 44.0383 22.0388 44.5009 22.5008C44.9634 22.9627 45.2237 23.5893 45.2248 24.243C45.2246 26.8289 44.4101 29.3491 42.8968 31.446C41.7637 33.0128 40.2786 34.2916 38.561 35.1794C36.8433 36.0673 34.9412 36.5394 33.0077 36.5577C31.0743 36.576 29.1636 36.1399 27.4294 35.2847C25.6953 34.4295 24.1862 33.179 23.0238 31.634C21.8613 33.179 20.3523 34.4295 18.6181 35.2847C16.884 36.1399 14.9733 36.576 13.0398 36.5577C11.1064 36.5394 9.20422 36.0673 7.48658 35.1794C5.76894 34.2916 4.28381 33.0128 3.15078 31.446C1.63713 29.3492 0.822253 26.829 0.821778 24.243C0.821514 23.9191 0.885167 23.5983 1.00909 23.299C1.13301 22.9998 1.31477 22.7279 1.54394 22.499C1.77311 22.2701 2.0452 22.0887 2.34461 21.9651C2.64402 21.8416 2.96487 21.7783 3.28878 21.779C3.94247 21.7792 4.56935 22.0388 5.03186 22.5008C5.49437 22.9627 5.75472 23.5893 5.75578 24.243C5.75301 26.1073 6.4553 27.9038 7.72178 29.272C8.66741 30.2934 9.88181 31.0275 11.2257 31.3902C12.5695 31.7529 13.9884 31.7294 15.3195 31.3224C16.6506 30.9155 17.8401 30.1415 18.7514 29.0894C19.6627 28.0373 20.259 26.7495 20.4718 25.374L17.8098 22.274C15.9818 20.142 17.4978 16.851 20.3098 16.851L23.0238 16.85Z" fill="#9C9C9C"/>
<path d="M34.5351 10.28C35.1827 10.2805 35.8241 10.1534 36.4225 9.90602C37.021 9.65862 37.5648 9.29574 38.023 8.83811C38.4812 8.38048 38.8448 7.83706 39.0929 7.23889C39.341 6.64073 39.4689 5.99954 39.4691 5.35195C39.4689 4.70437 39.341 4.06318 39.0929 3.46501C38.8448 2.86685 38.4812 2.32343 38.023 1.86579C37.5648 1.40816 37.021 1.04528 36.4225 0.797886C35.8241 0.550491 35.1827 0.423426 34.5351 0.423952C33.8876 0.423558 33.2464 0.550719 32.648 0.798173C32.0497 1.04563 31.5059 1.40853 31.0479 1.86615C30.5898 2.32377 30.2263 2.86714 29.9783 3.46524C29.7302 4.06334 29.6024 4.70445 29.6021 5.35195C29.6024 5.99945 29.7302 6.64056 29.9783 7.23866C30.2263 7.83676 30.5898 8.38014 31.0479 8.83776C31.5059 9.29538 32.0497 9.65828 32.648 9.90573C33.2464 10.1532 33.8876 10.2803 34.5351 10.28ZM11.5121 10.28C12.1596 10.2803 12.8009 10.1532 13.3992 9.90573C13.9976 9.65828 14.5413 9.29538 14.9994 8.83776C15.4575 8.38014 15.8209 7.83676 16.069 7.23866C16.3171 6.64056 16.4449 5.99945 16.4451 5.35195C16.4449 4.70445 16.3171 4.06334 16.069 3.46524C15.8209 2.86714 15.4575 2.32377 14.9994 1.86615C14.5413 1.40853 13.9976 1.04563 13.3992 0.798173C12.8009 0.550719 12.1596 0.423558 11.5121 0.423952C10.8645 0.423426 10.2232 0.550491 9.62473 0.797886C9.02626 1.04528 8.4824 1.40816 8.02421 1.86579C7.56602 2.32343 7.20248 2.86685 6.95436 3.46501C6.70623 4.06318 6.57839 4.70437 6.57812 5.35195C6.57839 5.99954 6.70623 6.64073 6.95436 7.23889C7.20248 7.83706 7.56602 8.38048 8.02421 8.83811C8.4824 9.29574 9.02626 9.65862 9.62473 9.90602C10.2232 10.1534 10.8645 10.2805 11.5121 10.28ZM79.4451 1.62795C80.2051 1.62795 80.8291 1.84495 81.3171 2.27895C81.8051 2.71295 82.0491 3.28295 82.0491 3.98895V28.324C82.0491 29.057 81.8191 29.64 81.3571 30.074C80.8971 30.508 80.2861 30.725 79.5271 30.725C78.7671 30.725 78.1571 30.508 77.6951 30.075C77.2341 29.64 77.0031 29.057 77.0031 28.325V27.307C76.4061 28.419 75.5381 29.287 74.3981 29.911C73.2861 30.535 72.0111 30.847 70.5731 30.847C68.8631 30.847 67.3311 30.413 65.9751 29.545C64.6451 28.677 63.6011 27.456 62.8411 25.882C62.1081 24.282 61.7421 22.451 61.7421 20.389C61.7421 18.327 62.1081 16.523 62.8411 14.976C63.6011 13.43 64.6451 12.236 65.9751 11.395C67.3041 10.554 68.8371 10.133 70.5731 10.133C72.0111 10.133 73.2861 10.432 74.3991 11.029C75.4836 11.5987 76.3754 12.4766 76.9621 13.552V3.90695C76.9621 3.22895 77.1791 2.68595 77.6131 2.27895C78.0751 1.84495 78.6851 1.62795 79.4451 1.62795ZM71.9161 26.9C73.5441 26.9 74.7921 26.344 75.6601 25.231C76.5551 24.119 77.0031 22.531 77.0031 20.47C77.0031 18.408 76.5551 16.834 75.6601 15.75C74.7921 14.637 73.5581 14.08 71.9571 14.08C70.3291 14.08 69.0671 14.623 68.1721 15.709C67.2771 16.794 66.8291 18.354 66.8291 20.389C66.8291 22.451 67.2771 24.051 68.1721 25.191C69.0671 26.331 70.3151 26.9 71.9161 26.9ZM96.3571 30.847C94.3231 30.847 92.5321 30.427 90.9861 29.586C89.4661 28.745 88.2861 27.538 87.4451 25.964C86.6041 24.39 86.1831 22.559 86.1831 20.47C86.1831 18.381 86.6031 16.563 87.4451 15.017C88.2861 13.443 89.4661 12.236 90.9851 11.395C92.5321 10.554 94.3231 10.133 96.3571 10.133C98.3921 10.133 100.169 10.553 101.688 11.395C103.211 12.2116 104.447 13.4758 105.229 15.017C106.07 16.563 106.491 18.381 106.491 20.47C106.491 22.56 106.07 24.39 105.229 25.964C104.447 27.5051 103.211 28.7693 101.688 29.586C100.169 30.426 98.3911 30.847 96.3571 30.847ZM96.3171 26.9C97.9721 26.9 99.2331 26.357 100.101 25.272C100.97 24.187 101.404 22.586 101.404 20.47C101.404 18.381 100.97 16.794 100.101 15.709C99.2331 14.596 97.9851 14.04 96.3571 14.04C94.7301 14.04 93.4671 14.596 92.5731 15.709C91.7051 16.794 91.2701 18.381 91.2701 20.47C91.2701 22.586 91.7041 24.187 92.5731 25.272C93.4411 26.357 94.6891 26.9 96.3171 26.9ZM127.538 10.215C128.298 10.215 128.908 10.432 129.369 10.865C129.831 11.3 130.061 11.883 130.061 12.615V28.69C130.061 31.81 129.193 34.1699 127.457 35.7719C125.72 37.3719 123.157 38.172 119.765 38.172C116.808 38.172 114.339 37.617 112.359 36.504C111.355 35.907 110.853 35.188 110.853 34.347C110.853 33.75 110.989 33.276 111.26 32.923C111.558 32.57 111.938 32.393 112.399 32.393C112.644 32.393 112.942 32.4479 113.295 32.5569C113.647 32.6919 114.014 32.842 114.393 33.004C115.243 33.3655 116.113 33.678 116.998 33.9399C117.785 34.1569 118.68 34.2659 119.684 34.2659C123.238 34.2659 125.015 32.53 125.015 29.056V26.452C124.418 27.565 123.55 28.432 122.411 29.057C121.271 29.654 119.969 29.952 118.504 29.952C116.767 29.952 115.221 29.545 113.864 28.732C112.535 27.89 111.491 26.724 110.731 25.232C109.971 23.739 109.591 22.017 109.591 20.063C109.591 18.11 109.958 16.387 110.69 14.895C111.45 13.375 112.508 12.209 113.864 11.395C115.221 10.554 116.767 10.133 118.504 10.133C119.969 10.133 121.271 10.445 122.411 11.069C123.521 11.6372 124.43 12.5321 125.015 13.633V12.575C125.015 11.87 125.246 11.3 125.707 10.865C126.168 10.432 126.779 10.215 127.538 10.215ZM119.847 26.005C121.475 26.005 122.736 25.475 123.631 24.418C124.554 23.359 125.015 21.908 125.015 20.063C125.015 18.191 124.554 16.726 123.631 15.668C122.736 14.61 121.475 14.081 119.847 14.081C118.246 14.081 116.984 14.61 116.062 15.668C115.14 16.726 114.678 18.191 114.678 20.063C114.678 21.908 115.14 23.359 116.062 24.418C116.984 25.476 118.246 26.005 119.847 26.005ZM142.533 30.847C139.576 30.847 137.189 30.264 135.371 29.097C134.503 28.582 134.069 27.849 134.069 26.9C134.069 26.357 134.218 25.923 134.516 25.598C134.815 25.245 135.181 25.068 135.615 25.068C136.076 25.068 136.714 25.286 137.528 25.72C138.396 26.127 139.183 26.439 139.888 26.656C140.621 26.873 141.543 26.981 142.655 26.981C143.795 26.981 144.677 26.791 145.301 26.411C145.952 26.031 146.277 25.503 146.277 24.824C146.277 24.364 146.142 23.997 145.87 23.726C145.626 23.454 145.165 23.21 144.487 22.993C143.835 22.749 142.832 22.478 141.475 22.179C139.061 21.691 137.324 20.999 136.266 20.104C135.235 19.209 134.72 17.9739 134.72 16.401C134.72 15.207 135.072 14.135 135.778 13.185C136.483 12.209 137.446 11.463 138.667 10.947C139.915 10.405 141.326 10.133 142.899 10.133C144.039 10.133 145.138 10.283 146.196 10.581C147.205 10.8312 148.168 11.2432 149.045 11.801C149.913 12.344 150.347 13.063 150.347 13.959C150.347 14.501 150.198 14.963 149.899 15.342C149.601 15.695 149.234 15.872 148.8 15.872C148.502 15.872 148.203 15.817 147.905 15.709C147.548 15.5272 147.195 15.3371 146.847 15.139C146.06 14.732 145.382 14.434 144.812 14.244C144.242 14.027 143.537 13.918 142.696 13.918C141.692 13.918 140.892 14.122 140.295 14.528C139.725 14.935 139.44 15.492 139.44 16.197C139.44 16.875 139.739 17.391 140.336 17.743C140.933 18.096 142.086 18.449 143.795 18.802C145.613 19.182 147.037 19.615 148.068 20.104C149.099 20.592 149.831 21.203 150.265 21.935C150.727 22.668 150.957 23.604 150.957 24.743C150.957 26.588 150.184 28.067 148.638 29.179C147.118 30.291 145.083 30.847 142.533 30.847Z" fill="#9C9C9C"/>
</svg>
