<svg width="208" height="41" viewBox="0 0 208 41" fill="none" xmlns="http://www.w3.org/2000/svg">
<g clip-path="url(#clip0_4_72)">
<mask id="mask0_4_72" style="mask-type:luminance" maskUnits="userSpaceOnUse" x="0" y="0" width="208" height="41">
<path d="M0 0H208V41H0V0Z" fill="white"/>
</mask>
<g mask="url(#mask0_4_72)">
<path fill-rule="evenodd" clip-rule="evenodd" d="M13.9352 36.123C13.8024 36.1218 13.6715 36.0902 13.5528 36.0305C13.4341 35.9709 13.3306 35.8849 13.2502 35.779C13.0221 35.4758 12.868 35.1234 12.8002 34.75C12.6918 34.2747 12.6084 33.7941 12.5502 33.31C12.4811 32.6867 12.4457 32.0601 12.4442 31.433C12.4237 30.055 12.4283 28.6768 12.4582 27.299C12.4762 26.453 12.4842 25.793 12.4842 25.317V9.56501C12.4842 8.78901 12.4892 8.19902 12.4982 7.79402C12.5072 7.38902 12.5382 6.93102 12.5892 6.42002C12.6192 6.04002 12.6852 5.66402 12.7882 5.29702C12.8882 5.01402 13.0212 4.74402 13.1832 4.49102C13.3332 4.22602 13.5512 4.00702 13.8162 3.85702C14.1242 3.70302 14.4412 3.56702 14.7652 3.44702C15.1827 3.29183 15.6155 3.18122 16.0562 3.11702C16.6305 3.03317 17.2067 2.96249 17.7842 2.90502V1.45002L17.3342 1.00002H1.41223L0.990234 1.45002V2.69202C3.66223 2.85102 5.15623 3.60902 5.47223 4.96502C5.65623 6.11002 5.74423 7.26802 5.73623 8.42702V32.554C5.78044 33.8072 5.72728 35.062 5.57723 36.307C5.50423 36.501 5.39723 36.679 5.26123 36.835C5.0576 37.0786 4.84235 37.3122 4.61623 37.535C4.43708 37.7081 4.26558 37.8889 4.10223 38.077V39.002C17.6892 39.002 26.0992 39.09 29.3322 39.267L30.4672 35.435L29.7552 34.932C24.5052 35.593 19.2252 35.99 13.9362 36.122L13.9352 36.123ZM39.1912 25.077C39.1397 25.0915 39.0867 25.1002 39.0332 25.103C38.7702 25.103 38.6382 25.007 38.6382 24.813C38.6392 23.937 38.7052 23.062 38.8362 22.196C38.9842 21.252 39.2312 20.326 39.5742 19.435C39.9048 18.5316 40.358 17.6779 40.9212 16.898C41.5182 16.1046 42.2933 15.4628 43.1841 15.0243C44.075 14.5858 45.0564 14.3631 46.0492 14.374C46.7657 14.3343 47.4802 14.4815 48.1225 14.8013C48.7649 15.1211 49.3131 15.6024 49.7132 16.198C50.5444 17.4298 50.9772 18.8872 50.9532 20.373C50.9497 20.6454 50.8632 20.9102 50.7052 21.1321C50.5473 21.354 50.3254 21.5225 50.0692 21.615C48.6256 22.1968 47.1514 22.6999 45.6532 23.122C43.5462 23.742 41.446 24.3854 39.3532 25.052C39.2985 25.0543 39.2441 25.0627 39.1912 25.077ZM54.8512 33.322C51.6862 35.242 48.9532 36.202 46.6532 36.202C45.0951 36.2359 43.5651 35.7832 42.2762 34.907C41.0772 34.1024 40.1238 32.9822 39.5212 31.67C38.9279 30.3542 38.6267 28.9254 38.6382 27.482C50.1332 23.906 55.9332 22.117 56.0382 22.117C56.4947 22.0236 56.9026 21.7697 57.188 21.4013C57.4733 21.0328 57.617 20.5744 57.5932 20.109C57.6245 18.8117 57.3204 17.5283 56.7102 16.383C56.1531 15.3587 55.3285 14.5047 54.3242 13.912C53.3111 13.3173 52.2131 12.8806 51.0682 12.617C49.8264 12.3359 48.5564 12.1983 47.2832 12.207C44.9992 12.1716 42.7342 12.6268 40.6412 13.542C38.7958 14.3391 37.1654 15.5618 35.8832 17.11C34.6744 18.6071 33.7416 20.3072 33.1282 22.131C32.4922 24.0076 32.1712 25.9766 32.1782 27.958C32.1782 32.028 33.2782 35.076 35.4742 37.102C37.4602 38.952 40.2642 39.876 43.8842 39.876C45.9598 39.8547 48.0029 39.3577 49.8562 38.423C52.0881 37.3114 54.2261 36.0205 56.2492 34.563L55.6722 33.535L54.8512 33.322ZM90.3602 5.45702C89.6538 3.6118 88.2665 2.10784 86.4842 1.25502C84.2764 0.326164 81.8916 -0.10669 79.4982 -0.0129843C77.7516 -0.0230031 76.0109 0.190053 74.3182 0.621016C72.7437 1.02192 71.2406 1.66384 69.8622 2.52402C68.5121 3.37516 67.4079 4.56448 66.6592 5.97402C65.8465 7.51578 65.4381 9.23849 65.4722 10.981C65.4713 12.2284 65.7744 13.4572 66.3552 14.561C66.91 15.6535 67.6608 16.6348 68.5702 17.456C69.5482 18.3187 70.5876 19.1091 71.6802 19.821C72.7769 20.5517 73.9126 21.222 75.0822 21.829C76.1818 22.3942 77.2633 22.9939 78.3252 23.627C79.2052 24.125 80.0312 24.714 80.7902 25.384C82.7402 27.199 83.7162 28.925 83.7162 30.564C83.7127 31.4346 83.5307 32.2952 83.1815 33.0928C82.8324 33.8903 82.3235 34.6078 81.6862 35.201C81.0537 35.8522 80.2949 36.3673 79.4563 36.715C78.6177 37.0627 77.717 37.2356 76.8092 37.223C75.7479 37.2535 74.6936 37.0407 73.7271 36.601C72.7606 36.1612 71.9076 35.5062 71.2332 34.686C69.8339 33.0836 69.0698 31.0243 69.0852 28.897L68.0582 28.527L62.8122 34.42C64.0111 36.1552 65.6367 37.5524 67.5322 38.477C69.4596 39.4226 71.5805 39.907 73.7272 39.892C75.6861 39.8822 77.6323 39.5788 79.5012 38.992C81.3807 38.4262 83.173 37.6034 84.8272 36.547C86.3999 35.5428 87.7354 34.2086 88.7412 32.637C89.7271 31.1426 90.2541 29.3923 90.2572 27.602C90.2651 26.6412 90.0956 25.6873 89.7572 24.788C89.4442 23.953 89.0088 23.1691 88.4652 22.462C87.8254 21.6771 87.085 20.9798 86.2632 20.388C85.3653 19.7109 84.4276 19.0881 83.4552 18.523C82.2914 17.8599 81.1138 17.2211 79.9232 16.607C79.0931 16.2046 78.2754 15.7771 77.4712 15.325C76.7107 14.8806 75.9707 14.4021 75.2532 13.891C74.5177 13.3868 73.8455 12.7959 73.2512 12.131C72.729 11.5105 72.3023 10.8155 71.9852 10.069C71.6333 9.26517 71.4538 8.3965 71.4582 7.51902C71.442 6.80136 71.57 6.08775 71.8345 5.42043C72.099 4.75312 72.4947 4.14565 72.9982 3.63402C73.5304 3.10217 74.1672 2.68665 74.8683 2.41381C75.5694 2.14097 76.3196 2.01675 77.0712 2.04902C78.0023 2.00881 78.9307 2.17507 79.79 2.53588C80.6492 2.8967 81.418 3.44313 82.0412 4.13602C83.29 5.54932 84.0765 7.3108 84.2952 9.18402L85.2182 9.47402L90.3602 5.45702ZM115.998 15.592C115.527 14.7672 114.845 14.083 114.021 13.61C113.206 13.1442 112.327 12.8015 111.411 12.593C110.429 12.3752 109.425 12.2688 108.419 12.276C106.5 12.249 104.592 12.576 102.79 13.241C101.245 13.8024 99.828 14.6697 98.6252 15.791C97.5075 16.8739 96.5805 18.1376 95.8832 19.529C95.1666 20.9287 94.639 22.4174 94.3142 23.956C93.9939 25.5122 93.8351 27.0972 93.8402 28.686C93.8342 30.036 94.0252 31.38 94.4062 32.674C94.7762 33.927 95.3512 35.11 96.1062 36.176C96.9024 37.2755 97.9702 38.1497 99.2052 38.713C100.623 39.361 102.168 39.682 103.726 39.651C108.665 39.651 113.305 37.475 117.646 33.124L117.119 32.357L116.46 32.199C113.244 34.683 110.273 35.925 107.549 35.925C106.529 35.9414 105.521 35.7102 104.61 35.251C103.785 34.8411 103.066 34.2443 102.511 33.508C101.961 32.7511 101.513 31.9246 101.179 31.05C100.833 30.1767 100.581 29.2689 100.428 28.342C100.288 27.468 100.218 26.584 100.217 25.699C100.223 24.574 100.32 23.452 100.507 22.343C100.714 21.108 101.023 19.893 101.43 18.709C101.8 17.5519 102.442 16.5004 103.302 15.643C103.681 15.2593 104.133 14.9553 104.631 14.7488C105.129 14.5424 105.663 14.4377 106.202 14.441C106.923 14.4013 107.64 14.5633 108.273 14.9089C108.906 15.2544 109.431 15.7698 109.787 16.397C110.602 17.8657 111.003 19.5282 110.947 21.207L111.87 21.577L116.853 18.618C116.812 17.5558 116.519 16.5186 115.998 15.592ZM125.661 23.454C125.795 22.416 126.029 21.394 126.36 20.402C126.663 19.437 127.093 18.518 127.638 17.667C128.162 16.8787 128.862 16.2228 129.682 15.751C130.567 15.2403 131.574 14.98 132.595 14.998C133.703 14.9698 134.796 15.2585 135.745 15.83C136.627 16.3793 137.336 17.1675 137.788 18.103C138.265 19.07 138.61 20.096 138.815 21.155C139.032 22.295 139.139 23.455 139.132 24.617C139.132 25.674 139.123 26.555 139.105 27.259C139.077 28.1071 139.016 28.9538 138.921 29.797C138.843 30.627 138.698 31.448 138.486 32.254C138.279 32.964 138.01 33.654 137.682 34.316C137.38 34.9713 136.945 35.5562 136.403 36.033C135.844 36.4895 135.211 36.847 134.531 37.09C133.707 37.3849 132.836 37.5282 131.961 37.513C130.997 37.5248 130.053 37.2384 129.258 36.693C128.483 36.1735 127.838 35.4819 127.374 34.672C126.887 33.8004 126.506 32.8734 126.24 31.911C125.96 30.964 125.757 29.9958 125.633 29.016C125.531 28.1698 125.478 27.3184 125.475 26.466C125.475 25.4591 125.537 24.4532 125.661 23.454ZM122.392 37.117C124.307 38.861 127.348 39.733 131.514 39.733C133.054 39.743 134.59 39.566 136.088 39.204C137.497 38.8537 138.84 38.2783 140.066 37.5C141.298 36.7227 142.376 35.7234 143.243 34.553C144.192 33.2259 144.898 31.7404 145.326 30.166C145.858 28.2568 146.116 26.2817 146.091 24.3C146.142 22.7045 145.846 21.1169 145.222 19.6474C144.598 18.1779 143.662 16.8617 142.479 15.79C140.281 13.818 137.091 12.831 132.909 12.831C128.726 12.831 125.281 14.126 122.574 16.716C121.245 17.9721 120.197 19.4948 119.497 21.1843C118.797 22.8738 118.462 24.6921 118.514 26.52C118.514 31.242 119.805 34.774 122.389 37.117H122.392ZM163.65 16.187C165.056 16.187 166.058 16.469 166.656 17.033C167.213 17.713 167.565 18.539 167.67 19.413C167.891 20.443 168.028 21.491 168.079 22.544C168.114 23.469 168.132 24.663 168.132 26.125C168.131 28.0234 168.118 29.9218 168.093 31.82C168.084 32.392 168.088 33.066 168.105 33.842C168.11 34.42 168.145 34.998 168.211 35.572C168.264 35.952 168.334 36.366 168.422 36.814C168.483 37.19 168.608 37.551 168.791 37.884C168.949 38.149 169.143 38.39 169.369 38.599C170.16 39.3167 171.201 39.6958 172.268 39.655C173.587 39.655 175.098 38.985 176.803 37.647C178.226 36.4636 179.581 35.2017 180.863 33.867L180.257 32.967H179.624C178.593 33.7942 177.332 34.2835 176.013 34.368C175.734 34.384 175.454 34.3431 175.191 34.2477C174.928 34.1523 174.687 34.0044 174.483 33.813C174.301 33.6691 174.145 33.4953 174.021 33.299C173.876 32.9533 173.783 32.588 173.745 32.215C173.644 31.4574 173.6 30.6932 173.613 29.929C173.613 29.348 173.644 28.409 173.705 27.115C173.754 26.195 173.785 25.2742 173.798 24.353V22.767C173.815 21.058 173.811 19.874 173.785 19.212C173.732 18.3089 173.631 17.4092 173.481 16.517C173.416 15.6758 173.134 14.8657 172.664 14.165C172.2 13.6616 171.645 13.2495 171.029 12.95C170.192 12.5451 169.269 12.3498 168.34 12.381C165.247 12.381 161.661 13.65 157.584 16.187L156.951 15.949C156.917 14.9773 156.601 14.0365 156.042 13.241C155.523 12.561 154.631 12.223 153.366 12.223C152.608 12.2326 151.856 12.3618 151.138 12.606C150.303 12.886 149.506 13.268 148.764 13.742C147.964 14.245 147.27 14.712 146.681 15.143C146.092 15.574 145.411 16.098 144.638 16.715L145.613 18.01C145.793 17.894 145.973 17.7797 146.154 17.667C146.461 17.473 146.729 17.315 146.958 17.191C147.186 17.068 147.459 16.923 147.775 16.755C148.058 16.601 148.354 16.472 148.659 16.369C148.892 16.289 149.136 16.244 149.383 16.237C149.688 16.23 149.989 16.307 150.253 16.462C150.521 16.639 150.723 16.899 150.831 17.202C150.963 17.522 151.077 17.847 151.173 18.179C151.281 18.626 151.343 19.082 151.358 19.541C151.394 20.141 151.415 20.625 151.422 20.994C151.43 21.363 151.434 21.918 151.435 22.659V23.109C151.435 24.835 151.303 30.12 151.04 38.964L151.699 39.334L157.631 37.616C157.455 36.859 157.323 34.472 157.235 30.456C157.148 26.5276 157.105 22.5984 157.107 18.669C160.165 17.013 162.344 16.185 163.645 16.185L163.65 16.187ZM189.223 25.197C189.172 25.2124 189.119 25.2218 189.065 25.225C188.802 25.225 188.67 25.128 188.669 24.935C188.67 24.058 188.736 23.184 188.868 22.318C189.016 21.374 189.263 20.448 189.605 19.556C189.936 18.653 190.388 17.799 190.95 17.019C191.547 16.2254 192.322 15.5833 193.213 15.1449C194.104 14.7064 195.085 14.4838 196.078 14.495C196.795 14.4552 197.509 14.6024 198.152 14.9222C198.794 15.2419 199.342 15.7233 199.742 16.319C200.574 17.5507 201.006 19.0082 200.981 20.494C200.977 20.7662 200.891 21.0307 200.733 21.2525C200.575 21.4743 200.354 21.643 200.098 21.736C198.655 22.3175 197.181 22.8206 195.683 23.243C193.576 23.8629 191.475 24.5063 189.382 25.173C189.329 25.1759 189.276 25.1843 189.224 25.198L189.223 25.197ZM204.883 33.443C201.718 35.364 198.985 36.324 196.684 36.323C195.126 36.3566 193.596 35.9044 192.307 35.029C191.109 34.2242 190.156 33.104 189.553 31.792C188.959 30.4756 188.658 29.0461 188.669 27.602C200.164 24.027 205.964 22.239 206.07 22.239C206.527 22.1452 206.935 21.891 207.22 21.5225C207.505 21.154 207.649 20.6954 207.625 20.23C207.656 18.9327 207.352 17.6493 206.742 16.504C206.185 15.4797 205.36 14.6257 204.356 14.033C203.343 13.4385 202.245 13.0019 201.1 12.738C199.858 12.4568 198.588 12.3192 197.314 12.328C195.031 12.2928 192.767 12.748 190.674 13.663C188.829 14.4601 187.198 15.6827 185.916 17.231C184.707 18.7278 183.774 20.428 183.161 22.252C182.525 24.1286 182.204 26.0976 182.212 28.079C182.212 32.149 183.31 35.196 185.507 37.223C187.493 39.073 190.296 39.997 193.917 39.997C195.993 39.9757 198.036 39.4786 199.889 38.544C202.121 37.4322 204.259 36.1416 206.282 34.685L205.705 33.656L204.883 33.443Z" fill="#9C9C9C"/>
</g>
</g>
<defs>
<clipPath id="clip0_4_72">
<rect width="208" height="41" fill="white"/>
</clipPath>
</defs>
</svg>
