<svg width="200" height="49" viewBox="0 0 200 49" fill="none" xmlns="http://www.w3.org/2000/svg">
<g clip-path="url(#clip0_4_80)">
<path d="M54.3812 44.014C51.0612 44.014 48.5162 43.446 46.7452 42.31C45.0052 41.142 44.1362 39.437 44.1362 37.196C44.1362 36.06 44.5162 35.128 45.2742 34.402C46.0652 33.645 47.0772 33.266 48.3102 33.266C49.0372 33.298 49.5902 33.486 49.9702 33.834C50.3502 34.15 50.5402 34.45 50.5402 34.734C50.5402 34.765 50.3812 34.876 50.0652 35.065C49.7492 35.255 49.4652 35.539 49.2112 35.917C48.9582 36.297 48.8312 36.817 48.8312 37.48C48.8312 38.964 49.2752 40.116 50.1602 40.937C51.0772 41.726 52.4842 42.12 54.3812 42.12C55.6782 42.12 56.8162 41.868 57.7972 41.363C58.7772 40.858 59.5202 40.195 60.0262 39.374C60.5632 38.522 60.8322 37.638 60.8322 36.722C60.8322 35.586 60.5002 34.608 59.8362 33.787C59.1913 32.9554 58.3848 32.2628 57.4652 31.751C56.5152 31.183 55.2192 30.535 53.5752 29.809C51.6782 28.957 50.1452 28.184 48.9752 27.489C47.7995 26.7901 46.7814 25.8551 45.9852 24.743C45.1642 23.575 44.7532 22.139 44.7532 20.434C44.7532 17.688 45.6852 15.636 47.5512 14.279C49.4492 12.921 51.9312 12.243 54.9982 12.243C57.4012 12.243 59.4882 12.748 61.2592 13.758C63.0622 14.768 63.9632 16.252 63.9632 18.208C63.9632 19.345 63.5672 20.292 62.7772 21.05C62.0182 21.776 61.0222 22.139 59.7892 22.139C59.0612 22.107 58.5082 21.933 58.1292 21.618C57.7492 21.271 57.5592 20.955 57.5592 20.671C57.5592 20.639 57.7652 20.529 58.1762 20.339C58.6192 20.15 58.9982 19.866 59.3142 19.487C59.6622 19.108 59.8362 18.587 59.8362 17.925C59.8362 16.757 59.3782 15.841 58.4612 15.178C57.5752 14.515 56.4372 14.184 55.0452 14.184C53.1172 14.184 51.6462 14.642 50.6352 15.557C49.6542 16.441 49.1642 17.546 49.1642 18.872C49.1642 19.976 49.4642 20.908 50.0652 21.665C50.6652 22.391 51.6302 23.117 52.9582 23.843C54.1098 24.4485 55.2804 25.0171 56.4682 25.548C58.4922 26.463 60.0892 27.3 61.2592 28.058C62.4639 28.8187 63.4845 29.8376 64.2472 31.041C65.0692 32.271 65.4812 33.803 65.4812 35.633C65.4812 37.212 64.9752 38.648 63.9632 39.943C62.9832 41.205 61.6382 42.199 59.9312 42.925C58.2552 43.651 56.4052 44.014 54.3812 44.014ZM78.3942 43.636C76.2442 43.636 74.5362 42.988 73.2712 41.694C72.0062 40.4 71.3742 38.695 71.3742 36.58V27.82C71.3742 27 71.3422 26.4 71.2792 26.021C71.2482 25.643 71.0582 25.311 70.7092 25.027C70.3622 24.743 69.7772 24.601 68.9552 24.601C68.5752 24.601 68.2912 24.554 68.1012 24.459C67.9112 24.333 67.8172 24.064 67.8172 23.654C67.8172 23.464 67.8802 23.291 68.0072 23.134C68.1332 22.944 68.3232 22.834 68.5762 22.802C70.5682 22.517 72.2762 22.107 73.6982 21.57C74.1412 21.413 74.5042 21.318 74.7892 21.286H74.9312C75.4372 21.286 75.6912 21.586 75.6912 22.186V36.533C75.6912 37.985 76.1492 39.106 77.0662 39.895C77.9551 40.6424 79.083 41.0455 80.2442 41.031C81.7302 41.031 82.9942 40.668 84.0382 39.942C85.0822 39.216 85.7782 38.49 86.1252 37.764V27.821C86.1252 27 86.0942 26.401 86.0312 26.021C85.9992 25.643 85.8092 25.311 85.4612 25.027C85.1132 24.743 84.5282 24.601 83.7062 24.601C83.3262 24.601 83.0422 24.554 82.8532 24.459C82.6632 24.333 82.5682 24.064 82.5682 23.654C82.5682 23.464 82.6312 23.291 82.7582 23.134C82.8842 22.944 83.0742 22.834 83.3272 22.802C85.3192 22.517 87.0272 22.107 88.4502 21.57C88.8922 21.413 89.2562 21.318 89.5402 21.286H89.6832C90.1892 21.286 90.4422 21.586 90.4422 22.186V38.57C90.4422 40.433 91.6912 41.364 94.1892 41.364C94.7262 41.364 94.9952 41.664 94.9952 42.264C94.9952 42.705 94.7262 42.974 94.1892 43.068L86.5522 43.589C86.3312 43.589 86.2042 43.51 86.1722 43.353C86.1422 43.226 86.1252 42.99 86.1252 42.643V39.99H86.0312C85.3053 40.6719 84.5617 41.3348 83.8012 41.978C83.2322 42.42 82.4892 42.799 81.5712 43.115C80.6862 43.462 79.6272 43.635 78.3942 43.635V43.636ZM97.5902 43.21C97.4797 43.2095 97.3708 43.1835 97.2719 43.1341C97.1731 43.0846 97.0869 43.0131 97.0202 42.925C96.8942 42.736 96.8302 42.515 96.8302 42.263C96.8622 41.853 96.9572 41.615 97.1152 41.553C97.2742 41.458 97.5582 41.41 97.9692 41.41C98.7912 41.41 99.3762 41.268 99.7242 40.984C100.072 40.7 100.262 40.368 100.293 39.99C100.357 39.61 100.388 39.011 100.388 38.19V27.347C100.388 26.527 100.357 25.927 100.293 25.547C100.262 25.169 100.072 24.837 99.7242 24.554C99.3762 24.27 98.7912 24.127 97.9692 24.127C97.5892 24.127 97.3052 24.08 97.1162 23.985C96.9262 23.859 96.8312 23.591 96.8312 23.18C96.8312 22.991 96.8942 22.817 97.0212 22.66C97.1472 22.47 97.3372 22.36 97.5902 22.328C99.6452 22.012 101.337 21.602 102.665 21.097C103.203 20.939 103.566 20.844 103.756 20.813H103.898C104.404 20.813 104.657 21.113 104.657 21.713V24.648H104.799C105.906 23.543 107.029 22.675 108.167 22.044C109.306 21.381 110.333 21.05 111.25 21.05C112.294 21.05 113.116 21.444 113.717 22.233C114.349 22.991 114.665 23.875 114.665 24.885C114.665 25.769 114.397 26.558 113.859 27.252C113.321 27.947 112.578 28.294 111.63 28.294C111.217 28.3012 110.809 28.2035 110.444 28.01C110.128 27.82 109.954 27.663 109.922 27.537C109.954 27.474 110.112 27.284 110.396 26.968C110.681 26.621 110.823 26.227 110.823 25.785C110.823 25.216 110.665 24.759 110.349 24.412C110.064 24.064 109.669 23.891 109.163 23.891C108.626 23.891 107.946 24.159 107.124 24.696C106.301 25.201 105.495 25.848 104.705 26.637V38.19C104.705 39.011 104.736 39.61 104.799 39.99C104.863 40.368 105.068 40.7 105.416 40.984C105.764 41.268 106.349 41.41 107.171 41.41H107.456C107.709 41.41 107.898 41.458 108.025 41.552C108.151 41.647 108.23 41.884 108.262 42.262C108.262 42.515 108.199 42.736 108.072 42.925C107.946 43.115 107.756 43.21 107.503 43.21C105.845 43.1198 104.184 43.0722 102.523 43.067C101.1 43.067 99.4562 43.116 97.5902 43.21ZM171.257 43.636C169.107 43.636 167.194 43.13 165.518 42.12C163.842 41.079 162.53 39.721 161.581 38.048C160.677 36.3926 160.204 34.5362 160.206 32.65C160.206 30.283 160.759 28.231 161.866 26.495C162.973 24.727 164.38 23.385 166.087 22.47C167.795 21.523 169.518 21.05 171.257 21.05C173.408 21.05 175.321 21.57 176.997 22.612C178.641 23.5887 179.986 24.997 180.886 26.684C181.823 28.3111 182.314 30.1565 182.309 32.034C182.309 34.402 181.74 36.47 180.602 38.238C179.495 39.974 178.088 41.315 176.38 42.262C174.673 43.178 172.965 43.636 171.257 43.636ZM171.257 41.884C173.408 41.884 174.973 40.968 175.953 39.137C176.965 37.307 177.471 34.939 177.471 32.035C177.471 29.32 176.949 27.111 175.906 25.405C174.894 23.67 173.344 22.802 171.257 22.802C169.076 22.802 167.495 23.702 166.514 25.501C165.534 27.3 165.044 29.651 165.044 32.556C165.044 35.27 165.55 37.512 166.562 39.279C167.574 41.016 169.139 41.884 171.257 41.884ZM194.261 43.872C192.711 43.872 191.383 43.304 190.276 42.168C189.17 41.031 188.616 39.406 188.616 37.291V23.37L185.865 23.465C185.773 23.4657 185.682 23.4446 185.6 23.4034C185.517 23.3622 185.446 23.3021 185.391 23.228C185.267 23.0467 185.201 22.8318 185.201 22.612C185.201 22.328 185.249 22.092 185.343 21.902C185.47 21.681 185.644 21.555 185.865 21.523C186.972 21.303 187.826 20.955 188.427 20.482C189.059 19.976 189.518 19.44 189.802 18.872C190.087 18.272 190.435 17.372 190.846 16.172C191.004 15.762 191.352 15.557 191.889 15.557C192.11 15.557 192.332 15.62 192.553 15.747C192.774 15.841 192.885 15.999 192.885 16.22L192.553 21.618L198.103 21.286H198.198C198.609 21.286 198.814 21.586 198.814 22.186C198.814 22.533 198.751 22.865 198.624 23.18C198.53 23.465 198.403 23.607 198.245 23.607L192.933 23.465V37.859C192.933 38.901 193.138 39.769 193.549 40.463C193.992 41.158 194.703 41.505 195.684 41.505C196.664 41.505 197.534 41.331 198.292 40.984C198.704 40.826 198.956 40.747 199.051 40.747C199.273 40.747 199.447 40.842 199.573 41.031C199.7 41.189 199.826 41.411 199.953 41.694C199.987 41.7684 200.003 41.8494 200 41.931C200 42.057 199.905 42.199 199.715 42.357C198.798 42.957 197.929 43.352 197.107 43.541C196.316 43.761 195.367 43.872 194.261 43.872ZM117.597 42.925C117.723 43.115 117.913 43.209 118.166 43.209C119.809 43.1188 121.454 43.0714 123.099 43.067C125.218 43.067 127.194 43.115 129.028 43.209C129.132 43.2113 129.235 43.1864 129.327 43.1365C129.419 43.0867 129.496 43.0138 129.55 42.925C129.676 42.735 129.739 42.515 129.739 42.262C129.708 41.884 129.629 41.647 129.502 41.552C129.407 41.458 129.218 41.41 128.933 41.41H128.648C127.605 41.41 126.862 41.331 126.419 41.173C125.976 41.016 125.676 40.731 125.518 40.321C125.36 39.879 125.281 39.169 125.281 38.191V23.463H130.309C130.42 23.4624 130.528 23.4365 130.627 23.3873C130.725 23.3381 130.812 23.2668 130.878 23.179C131.036 22.99 131.115 22.769 131.115 22.516C131.083 22.138 130.988 21.901 130.83 21.806C130.704 21.68 130.498 21.616 130.214 21.616H125.281V18.776C125.281 17.261 125.344 15.935 125.47 14.798C125.588 13.6565 125.961 12.5561 126.561 11.578C127.162 10.6 128.095 10.111 129.36 10.111C129.505 10.111 129.646 10.119 129.782 10.136C129.764 9.6055 129.799 9.07457 129.886 8.55097C129.822 8.54919 129.757 8.54819 129.692 8.54797C126.909 8.61097 124.743 9.66797 123.194 11.721C121.676 13.741 120.917 16.377 120.917 19.628V21.617H118.071C117.66 21.617 117.375 21.664 117.217 21.759C117.059 21.822 116.964 22.075 116.933 22.516C116.933 22.769 116.996 22.99 117.122 23.179C117.281 23.369 117.486 23.464 117.739 23.464H120.917V38.19C120.917 39.043 120.885 39.658 120.822 40.037C120.791 40.384 120.601 40.7 120.253 40.984C119.905 41.268 119.32 41.41 118.498 41.41C118.087 41.41 117.802 41.458 117.644 41.552C117.518 41.615 117.439 41.852 117.407 42.262C117.407 42.515 117.47 42.736 117.597 42.925Z" fill="#9C9C9C"/>
<path fill-rule="evenodd" clip-rule="evenodd" d="M142.952 9.865C142.952 10.5564 142.815 11.2409 142.55 11.8794C142.284 12.518 141.896 13.098 141.407 13.5865C140.917 14.0749 140.336 14.4622 139.697 14.7261C139.058 14.9901 138.374 15.1257 137.682 15.125C136.286 15.1261 134.946 14.5725 133.958 13.5862C132.97 12.5998 132.414 11.2613 132.412 9.865C132.413 9.17346 132.549 8.48879 132.815 7.85009C133.08 7.21139 133.468 6.63117 133.957 6.14255C134.447 5.65392 135.028 5.26647 135.667 5.00232C136.306 4.73816 136.991 4.60247 137.682 4.603C138.374 4.60234 139.059 4.73794 139.698 5.00205C140.337 5.26616 140.918 5.6536 141.407 6.14225C141.897 6.6309 142.285 7.21118 142.55 7.84994C142.815 8.4887 142.952 9.17342 142.952 9.865ZM137.682 12.495C138.028 12.4954 138.37 12.4277 138.69 12.2957C139.009 12.1637 139.3 11.9701 139.545 11.7259C139.789 11.4816 139.983 11.1916 140.116 10.8723C140.249 10.553 140.317 10.2107 140.317 9.865C140.317 9.51919 140.249 9.1768 140.116 8.85739C139.984 8.53798 139.79 8.24782 139.545 8.00348C139.3 7.75914 139.01 7.56542 138.69 7.43339C138.371 7.30136 138.028 7.2336 137.682 7.234C136.984 7.23373 136.315 7.51058 135.82 8.00371C135.326 8.49685 135.048 9.16594 135.047 9.864C135.048 10.5622 135.326 11.2316 135.82 11.7249C136.314 12.2183 136.984 12.4953 137.682 12.495ZM135.372 17.414V42.784C135.372 43.067 135.452 43.288 135.61 43.446C135.768 43.636 135.989 43.73 136.274 43.73C136.558 43.73 136.795 43.604 136.985 43.352C137.175 43.131 137.349 42.799 137.507 42.357C137.665 41.915 137.807 41.568 137.934 41.315H138.171C140.226 42.862 142.661 43.635 145.475 43.635C147.373 43.635 149.159 43.13 150.835 42.12C152.511 41.11 153.839 39.737 154.82 38C155.831 36.233 156.337 34.292 156.337 32.177C156.337 30.03 155.895 28.121 155.009 26.447C154.156 24.743 152.97 23.417 151.452 22.47C149.934 21.523 148.242 21.05 146.377 21.05C145.238 21.05 144.084 21.286 142.914 21.76C141.776 22.202 140.748 22.88 139.831 23.796H139.689V17.5C138.27 17.8685 136.776 17.8388 135.372 17.414ZM149.697 39.421C148.527 41.158 146.977 42.026 145.049 42.026C144.037 42.026 143.136 41.805 142.345 41.363C141.586 40.921 140.969 40.4 140.495 39.8C140.052 39.169 139.784 38.6 139.689 38.096V25.596C141.048 24.143 142.724 23.417 144.717 23.417C146.962 23.417 148.653 24.301 149.792 26.069C150.93 27.805 151.499 29.904 151.499 32.366C151.499 35.302 150.899 37.654 149.697 39.421ZM12.7002 0.366998C13.0357 0.127971 13.4373 -0.000488281 13.8492 -0.000488281C14.2611 -0.000488281 14.6628 0.127971 14.9982 0.366998C23.5582 6.471 27.4382 13.788 27.6832 24.287C27.7962 29.3 27.3132 33.89 25.8422 37.855C24.3322 41.823 21.6492 45.488 17.6992 48.584C17.4533 48.7751 17.1657 48.9055 16.8599 48.9646C16.5541 49.0237 16.2386 49.0098 15.9392 48.924C14.7292 48.577 14.5232 47.145 13.8492 46.253C13.1752 47.145 12.9712 48.576 11.7592 48.923C11.4599 49.0086 11.1447 49.0224 10.8391 48.9633C10.5334 48.9043 10.246 48.774 10.0002 48.583C6.05021 45.488 3.36621 41.823 1.85721 37.855C0.387214 33.89 -0.0967856 29.3 0.0162144 24.287C0.260214 13.788 4.14021 6.47 12.7002 0.366998ZM17.1262 44.062C19.5982 41.792 21.0882 39.317 22.1402 36.47C23.4652 32.99 23.8472 29.144 23.7322 24.379C23.5422 16.192 21.6222 10.865 15.8092 5.919V20.387C18.0822 20.971 19.1022 23.197 19.1022 25.647C19.1022 28.099 18.0822 30.325 15.8092 30.909V42.746C15.8092 42.746 16.8652 43.719 17.1262 44.062ZM10.5382 44.062C8.06621 41.792 6.61121 39.317 5.55821 36.47C4.23421 32.99 3.85221 29.144 3.96821 24.379C4.15821 16.209 6.06721 10.859 11.8562 5.919V20.387C9.58321 20.971 8.56221 23.197 8.56221 25.647C8.56221 28.099 9.58221 30.325 11.8562 30.909V42.746C11.8562 42.746 10.7902 43.731 10.5382 44.062ZM13.8322 23.017C13.1341 23.0165 12.4643 23.2932 11.9702 23.7864C11.476 24.2796 11.198 24.9489 11.1972 25.647C11.1972 27.101 12.3772 28.278 13.8322 28.278C14.5304 28.2785 15.2001 28.0018 15.6943 27.5086C16.1884 27.0154 16.4664 26.3461 16.4672 25.648C16.4672 24.195 15.2872 23.017 13.8322 23.017Z" fill="#9C9C9C"/>
</g>
<defs>
<clipPath id="clip0_4_80">
<rect width="200" height="49" fill="white"/>
</clipPath>
</defs>
</svg>
