<svg width="196" height="34" viewBox="0 0 196 34" fill="none" xmlns="http://www.w3.org/2000/svg">
<g clip-path="url(#clip0_4_83)">
<path d="M21.644 32.955C20.4706 32.9865 19.3082 32.722 18.264 32.186C17.2254 31.6537 16.3395 30.8656 15.69 29.896C13.6449 31.7745 10.9953 32.8595 8.22 32.955C3.233 32.955 0.53 29.491 1.443 24.525C2.137 20.791 5.242 17.049 6.11 14.045C4.43 13.037 1.936 12.335 0.767 14.395L0 13.936C0.612 11.678 2.091 10.176 4.228 10.176C6.365 10.176 7.945 11.426 9.982 10.275H11.607C10.74 14.773 8.548 18.371 7.379 24.669C6.667 28.529 7.991 30.283 10.229 30.283C11.8822 30.0797 13.403 29.2757 14.502 28.024C13.6095 25.8276 13.1596 23.4766 13.178 21.106C13.178 15.636 15.726 9.86997 20 9.86997C22.192 9.86997 23.817 11.372 23.817 14.935C23.817 18.497 21.626 24.012 18.831 27.475C18.982 28.3 19.421 29.047 20.071 29.588C20.721 30.128 21.542 30.428 22.393 30.436C26.466 30.436 29.315 24.416 29.315 18.848C29.315 13.28 26.868 13.531 27.078 11.651C27.0969 11.416 27.162 11.1871 27.2696 10.9774C27.3772 10.7677 27.5252 10.5813 27.705 10.429C28.069 10.119 28.543 9.96397 29.023 9.99597C30.293 9.99597 31.963 11.579 31.963 18.003C31.963 26.189 27.544 32.955 21.644 32.955ZM20.722 12.695C19.452 12.695 18.228 17.31 18.073 22.078C18.0137 23.0976 18.0321 24.1202 18.128 25.137C20.0432 22.0181 21.2119 18.4989 21.543 14.854C21.534 13.234 21.233 12.694 20.721 12.694L20.722 12.695ZM40.329 32.748C39.7964 32.8022 39.2584 32.7405 38.752 32.567C38.2475 32.3946 37.7868 32.114 37.402 31.745C37.0197 31.378 36.7233 30.931 36.534 30.436C36.3451 29.9431 36.2686 29.4142 36.31 28.888C36.31 26.684 39.215 15.699 39.215 13.891C39.215 13.037 39.014 12.533 38.247 12.533C37.3912 12.6703 36.5942 13.0547 35.954 13.639V12.083C37.2835 10.8769 38.9997 10.1848 40.794 10.131C41.3299 10.0833 41.8698 10.1515 42.377 10.331C42.883 10.511 43.343 10.796 43.726 11.169C44.108 11.541 44.404 11.991 44.592 12.489C44.779 12.985 44.855 13.516 44.812 14.044C44.812 16.248 41.909 27.188 41.909 28.987C41.909 29.842 42.109 30.346 42.877 30.346C43.7212 30.2056 44.5126 29.8421 45.169 29.293V30.795C43.8445 32.0092 42.1253 32.7029 40.329 32.748ZM43.89 0.998967C44.288 0.986967 44.684 1.05897 45.051 1.21297C45.417 1.36697 45.746 1.59697 46.012 1.88797C46.279 2.17675 46.4787 2.52116 46.5967 2.89639C46.7146 3.27162 46.7478 3.66834 46.694 4.05797C46.5958 4.88987 46.1972 5.65728 45.573 6.21597C44.9435 6.77977 44.1329 7.09941 43.288 7.11697C42.8905 7.12956 42.4949 7.05658 42.128 6.90297C41.7623 6.75019 41.4341 6.5199 41.166 6.22797C40.899 5.93919 40.6993 5.59478 40.5813 5.21954C40.4634 4.84431 40.4302 4.44759 40.484 4.05797C40.5823 3.22609 40.9809 2.45871 41.605 1.89997C42.2347 1.33661 43.0453 1.01634 43.89 0.998967ZM55.196 28.034C54.941 29.392 55.096 30.337 56.064 30.337C56.9112 30.2065 57.7051 29.8418 58.356 29.284L58.447 30.795C57.1176 32.0014 55.4014 32.6939 53.607 32.748C50.447 32.748 49.224 30.49 49.69 27.683L52.795 10.275C53.827 4.46297 53.47 3.69797 50.31 3.69797L50.511 2.29497L60.036 1.05297L55.196 28.034ZM81.982 27.988C81.726 29.347 81.826 30.346 82.849 30.346C83.6981 30.1873 84.4896 29.8052 85.142 29.239V30.795C83.8212 32.0149 82.0996 32.7096 80.302 32.748C79.3927 32.8139 78.4912 32.541 77.771 31.982C77.0565 31.4284 76.5772 30.6256 76.429 29.734C75.6625 30.7325 74.6786 31.5433 73.552 32.105C72.4197 32.6703 71.1745 32.9732 69.909 32.991C63.854 32.991 61.306 27.728 62.475 21.403C63.644 15.079 69.095 9.91497 75.26 9.91497C76.7175 9.88443 78.1591 10.2215 79.452 10.895L79.607 10.095C80.813 3.90497 80.256 3.69797 77.096 3.69797L77.251 2.29497L86.821 1.05297L81.981 27.989L81.982 27.988ZM75.415 12.182C71.899 12.182 69.562 16.293 68.639 21.358C67.671 26.675 68.283 30.355 71.589 30.355C73.826 30.355 76.374 27.655 77.141 23.535L79.023 13.1C77.9348 12.4505 76.6813 12.1316 75.415 12.182ZM98.073 32.999C90.995 32.999 89.059 27.979 89.927 23.166L92.237 10.275C93.306 4.45497 92.95 3.65297 89.79 3.65297L89.99 2.24997L99.543 1.05297L97.607 11.984C99.1008 10.7079 100.986 9.981 102.95 9.92397C109.114 9.92397 112.009 15.088 110.895 21.412C109.781 27.737 104.11 32.999 98.073 32.999ZM101.379 12.308C100.352 12.328 99.3576 12.6686 98.534 13.282C97.7166 13.8905 97.1139 14.7433 96.813 15.717L95.388 23.814C94.52 28.627 96.256 30.588 98.448 30.588C101.653 30.588 103.644 27.08 104.712 21.313C105.662 16.149 104.795 12.335 101.37 12.335L101.379 12.308ZM120.548 24.327C120.548 28.187 122.429 30.247 126.027 30.247C127.854 30.247 130.511 28.997 132.192 27.341L132.904 28.942C131.693 30.205 130.242 31.214 128.637 31.91C127.025 32.6088 125.291 32.9819 123.534 33.008C118.192 33.008 114.575 29.095 114.575 23.778C114.575 15.906 121.196 9.93297 127.562 9.93297C131.434 9.93297 133.616 12.038 133.616 14.494C133.571 18.308 129.9 22.591 120.548 24.327ZM127.114 12.236C124.21 12.236 121.416 16.401 120.648 22.366C126.502 20.962 128.995 17.049 129.05 14.539C129.041 13.136 128.374 12.236 127.105 12.236H127.114ZM154.393 32.748C153.484 32.8138 152.582 32.541 151.862 31.982C151.148 31.4283 150.669 30.6255 150.521 29.734C149.783 30.732 148.822 31.5445 147.715 32.107C146.603 32.673 145.376 32.9751 144.128 32.99C138.174 32.99 135.626 27.728 136.822 21.403C138.018 15.079 143.379 9.92297 149.562 9.92297C150.872 9.91634 152.17 10.1738 153.379 10.68H159.187L156.073 27.988C155.817 29.347 155.918 30.346 156.941 30.346C157.79 30.187 158.581 29.805 159.233 29.239V30.795C157.912 32.0149 156.191 32.7095 154.393 32.748ZM149.708 12.182C146.292 12.182 143.9 16.293 142.986 21.358C142.018 26.675 142.685 30.355 145.726 30.355C148.064 30.355 150.566 27.548 151.279 23.535L153.16 13.1C152.133 12.4505 150.931 12.1302 149.717 12.182H149.708ZM177.005 15.843C175.626 15.843 175.269 14.791 174.868 13.684C174.731 13.1244 174.402 12.6305 173.939 12.288C173.472 11.9426 172.9 11.7685 172.32 11.795C171.566 11.7551 170.824 11.9951 170.237 12.469C169.654 12.9381 169.27 13.6098 169.16 14.35C169.005 15.709 170.027 16.86 171.963 18.515L174.557 20.62C175.521 21.3377 176.269 22.3062 176.721 23.42C177.17 24.53 177.303 25.74 177.105 26.918C176.447 30.678 173.288 32.99 169.059 32.99C163.963 32.99 160.712 30.03 161.068 28.024C161.151 27.497 161.421 27.014 161.831 26.666C162.241 26.316 162.764 26.122 163.306 26.117C164.63 26.117 165.132 27.116 165.543 28.42C165.807 29.17 166.314 29.812 166.986 30.248C167.66 30.6843 168.459 30.889 169.26 30.831C170.052 30.8685 170.829 30.6129 171.444 30.113C172.053 29.6173 172.454 28.9105 172.566 28.133C172.767 26.333 171.653 25.227 169.562 23.364L167.014 21.16C166.118 20.4867 165.418 19.5868 164.986 18.553C164.556 17.5243 164.411 16.399 164.566 15.295C165.023 12.884 167.306 9.89697 172.557 9.89697C176.63 9.89697 179.178 12.155 178.95 13.963C178.924 14.4616 178.71 14.9318 178.35 15.278C177.99 15.626 177.509 15.828 177.005 15.843ZM195.644 12.695H190.703L188.311 26.027C187.799 28.789 188.21 30.04 189.735 30.04C190.548 30.04 191.826 29.59 193.653 27.737L193.753 29.689C192.923 30.6566 191.895 31.4343 190.738 31.969C189.576 32.5067 188.312 32.7903 187.032 32.801C183.571 32.801 181.836 30.391 182.658 25.928L185.05 12.695H181.187L181.489 10.635H185.388L186.411 4.66997H192.11L191.041 10.634H195.982L195.644 12.695Z" fill="#9C9C9C"/>
</g>
<defs>
<clipPath id="clip0_4_83">
<rect width="196" height="34" fill="white"/>
</clipPath>
</defs>
</svg>
