<svg xmlns="http://www.w3.org/2000/svg" width="32" height="32" fill="none"><path fill="url(#a)" d="M24 12.667h-1.333V10A6.67 6.67 0 0 0 16 3.333 6.67 6.67 0 0 0 9.333 10v2.667H8a2.674 2.674 0 0 0-2.667 2.666v13.334c0 1.466 1.2 2.666 2.667 2.666h16c1.467 0 2.667-1.2 2.667-2.666V15.333c0-1.466-1.2-2.666-2.667-2.666Zm-8 12A2.674 2.674 0 0 1 13.333 22c0-1.467 1.2-2.667 2.667-2.667 1.467 0 2.667 1.2 2.667 2.667 0 1.467-1.2 2.667-2.667 2.667Zm-4-12V10c0-2.213 1.787-4 4-4s4 1.787 4 4v2.667h-8Z"/><defs><linearGradient id="a" x1="16" x2="16" y1="3.333" y2="31.333" gradientUnits="userSpaceOnUse"><stop stop-color="#FFBF00"/><stop offset="1" stop-color="#F2A60C"/></linearGradient></defs></svg>