<svg xmlns="http://www.w3.org/2000/svg" width="32" height="32" fill="none"><path fill="url(#a)" d="M15.667 10.667A5.332 5.332 0 0 0 10.333 16a5.332 5.332 0 0 0 5.334 5.333A5.332 5.332 0 0 0 21 16a5.332 5.332 0 0 0-5.333-5.333Zm11.92 4A11.992 11.992 0 0 0 17 4.08V2.667c0-.734-.6-1.334-1.333-1.334-.734 0-1.334.6-1.334 1.334V4.08A11.992 11.992 0 0 0 3.747 14.667H2.333C1.6 14.667 1 15.267 1 16s.6 1.333 1.333 1.333h1.414A11.992 11.992 0 0 0 14.333 27.92v1.413c0 .734.6 1.334 1.334 1.334.733 0 1.333-.6 1.333-1.334V27.92a11.992 11.992 0 0 0 10.587-10.587H29c.733 0 1.333-.6 1.333-1.333s-.6-1.333-1.333-1.333h-1.413Zm-11.92 10.666A9.327 9.327 0 0 1 6.333 16a9.327 9.327 0 0 1 9.334-9.333A9.326 9.326 0 0 1 25 16a9.327 9.327 0 0 1-9.333 9.333Z"/><defs><linearGradient id="a" x1="15.667" x2="15.667" y1="1.333" y2="30.667" gradientUnits="userSpaceOnUse"><stop stop-color="#FFBF00"/><stop offset="1" stop-color="#F2A60C"/></linearGradient></defs></svg>