<svg xmlns="http://www.w3.org/2000/svg" width="32" height="32" fill="none"><path fill="url(#a)" d="M22.667 22.653c-1.8 0-2.934.56-3.934 1.067-.866.44-1.573.8-2.733.8-1.2 0-1.867-.333-2.733-.8-1-.507-2.094-1.067-3.934-1.067-1.84 0-2.933.56-3.933 1.067-.573.293-1.08.547-1.693.693-.6.134-1.04.613-1.04 1.213v.134c0 .8.746 1.373 1.52 1.213.986-.2 1.733-.573 2.413-.92.867-.44 1.56-.8 2.733-.8 1.174 0 1.867.334 2.734.8 1 .507 2.093 1.067 3.933 1.067 1.84 0 2.933-.56 3.933-1.067.867-.44 1.574-.8 2.734-.8 1.2 0 1.866.334 2.733.8.693.347 1.44.733 2.44.933a1.252 1.252 0 0 0 1.493-1.213v-.12c0-.613-.453-1.093-1.053-1.226-.613-.134-1.107-.387-1.68-.694-1-.52-2.133-1.08-3.933-1.08Zm0-5.933c-1.8 0-2.934.573-3.934 1.067-.866.426-1.573.8-2.733.8-1.2 0-1.867-.334-2.733-.8-1-.507-2.094-1.067-3.934-1.067-1.84 0-2.933.573-3.933 1.067-.573.28-1.08.546-1.707.693-.586.133-1.026.613-1.026 1.213v.133A1.24 1.24 0 0 0 4.16 21.04c1-.2 1.747-.587 2.44-.92.867-.467 1.533-.8 2.733-.8 1.2 0 1.867.333 2.734.8 1 .506 2.093 1.066 3.933 1.066 1.84 0 2.933-.573 3.933-1.066.867-.467 1.534-.8 2.734-.8s1.866.333 2.733.8c.693.346 1.44.733 2.44.933a1.251 1.251 0 0 0 1.493-1.227v-.12c0-.613-.453-1.093-1.053-1.226-.613-.134-1.107-.387-1.68-.694-1-.506-2.133-1.066-3.933-1.066ZM26.6 5.947c-1-.507-2.107-1.067-3.933-1.067-1.827 0-2.934.56-3.934 1.067-.866.426-1.573.8-2.733.8-1.2 0-1.867-.334-2.733-.8-1-.494-2.094-1.067-3.934-1.067-1.84 0-2.933.56-3.933 1.067-.573.293-1.08.546-1.693.693-.6.133-1.04.613-1.04 1.213v.094c0 .8.72 1.386 1.493 1.226 1-.2 1.747-.586 2.44-.92.867-.44 1.56-.8 2.733-.8 1.174 0 1.867.334 2.734.8 1 .507 2.093 1.067 3.933 1.067 1.84 0 2.933-.573 3.933-1.067.867-.426 1.574-.8 2.734-.8 1.2 0 1.866.334 2.733.8.693.347 1.44.734 2.44.934a1.253 1.253 0 0 0 1.493-1.227v-.12c0-.613-.453-1.093-1.053-1.227-.613-.133-1.107-.373-1.68-.666Zm-3.933 4.84c-1.8 0-2.934.573-3.934 1.066-.866.467-1.533.8-2.733.8-1.2 0-1.867-.333-2.733-.8-1-.506-2.094-1.066-3.934-1.066-1.84 0-2.933.573-3.933 1.066-.573.307-1.067.56-1.68.694-.6.133-1.053.613-1.053 1.226v.12a1.24 1.24 0 0 0 1.493 1.213c1-.2 1.747-.586 2.44-.92.867-.426 1.573-.8 2.733-.8 1.16 0 1.867.334 2.734.8 1 .507 2.093 1.067 3.933 1.067 1.84 0 2.933-.573 3.933-1.066.867-.427 1.574-.8 2.734-.8 1.2 0 1.866.333 2.733.8.693.346 1.44.733 2.44.933a1.254 1.254 0 0 0 1.493-1.213v-.12c0-.614-.453-1.094-1.053-1.227-.613-.133-1.107-.387-1.68-.694-1-.52-2.133-1.08-3.933-1.08Z"/><defs><linearGradient id="a" x1="16" x2="16" y1="4.88" y2="27.12" gradientUnits="userSpaceOnUse"><stop stop-color="#FFBF00"/><stop offset="1" stop-color="#F2A60C"/></linearGradient></defs></svg>