<svg xmlns="http://www.w3.org/2000/svg" width="137" height="37" fill="none"><path fill="#fff" d="M5.273 14.762a8.116 8.116 0 0 1 2.714-2.927c1.174-.75 2.507-1.126 4-1.126 1.736 0 3.3.526 4.695 1.577 1.418 1.05 2.531 2.551 3.338 4.503.832 1.921 1.247 4.158 1.247 6.71 0 2.552-.415 4.819-1.247 6.8-.807 1.951-1.92 3.468-3.338 4.548-1.394 1.081-2.96 1.622-4.696 1.622-1.516 0-2.85-.36-3.999-1.081a8.7 8.7 0 0 1-2.714-2.882v3.557H.137V2.738h5.136v12.024ZM16.02 23.5c0-1.501-.256-2.792-.77-3.873-.49-1.11-1.15-1.952-1.981-2.522-.803-.569-1.714-.864-2.641-.856-.93 0-1.81.3-2.642.901-.807.57-1.467 1.411-1.98 2.522-.49 1.11-.734 2.417-.734 3.918 0 1.501.244 2.807.733 3.918.514 1.11 1.174 1.966 1.981 2.567.832.57 1.712.855 2.642.855.954 0 1.834-.3 2.641-.9.832-.6 1.492-1.456 1.981-2.567.514-1.111.77-2.432.77-3.963ZM27.604 8.142c-.905 0-1.663-.345-2.275-1.035-.587-.72-.88-1.607-.88-2.657 0-1.051.293-1.922.88-2.612.612-.72 1.37-1.081 2.275-1.081.905 0 1.65.36 2.238 1.08.611.691.917 1.562.917 2.613 0 1.05-.306 1.936-.917 2.657-.587.69-1.333 1.035-2.238 1.035Zm2.531 2.973v24.948H25V11.115h5.136Zm17.108 24.948-6.897-10.628v10.628H35.21V2.738h5.136v18.96l6.823-10.583h6.677l-8.951 12.519 9.024 12.43h-6.676Zm7.05-12.474c0-2.582.428-4.834 1.284-6.755.856-1.952 2.043-3.453 3.559-4.503 1.516-1.081 3.253-1.622 5.21-1.622 2.518 0 4.597.78 6.236 2.342 1.663 1.531 2.776 3.693 3.338 6.485h-5.538c-.294-1.08-.795-1.922-1.505-2.522-.684-.63-1.54-.946-2.567-.946-1.468 0-2.63.66-3.486 1.982-.856 1.29-1.284 3.137-1.284 5.539 0 2.372.428 4.218 1.284 5.54.856 1.29 2.018 1.936 3.486 1.936 2.078 0 3.436-1.141 4.072-3.423h5.539c-.563 2.702-1.675 4.849-3.338 6.44-1.663 1.591-3.742 2.387-6.237 2.387-1.956 0-3.693-.526-5.21-1.577-1.504-1.065-2.736-2.625-3.558-4.503-.856-1.951-1.285-4.218-1.285-6.8ZM81.8 14.988c.63-1.285 1.513-2.353 2.568-3.108 1.076-.75 2.3-1.126 3.669-1.126v6.62h-1.358c-1.614 0-2.837.466-3.668 1.396-.807.931-1.21 2.552-1.21 4.864v12.43h-5.137v-24.95H81.8v3.873Zm21.985 17.518c-.563 1.14-1.48 2.101-2.752 2.882a7.943 7.943 0 0 1-4.108 1.126c-1.272 0-2.421-.316-3.449-.946-1.027-.63-1.834-1.501-2.42-2.612-.588-1.11-.881-2.387-.881-3.828 0-2.312.697-4.203 2.09-5.674 1.42-1.471 3.535-2.207 6.347-2.207h5.173c-.049-1.591-.428-2.852-1.137-3.783-.685-.96-1.639-1.44-2.862-1.44-1.076 0-1.969.36-2.678 1.08-.71.69-1.162 1.666-1.357 2.927h-5.136c.244-1.801.77-3.407 1.577-4.818.825-1.434 1.937-2.582 3.229-3.333 1.345-.81 2.849-1.216 4.512-1.216 1.712 0 3.253.436 4.622 1.306 1.361.832 2.495 2.13 3.265 3.738.783 1.621 1.174 3.528 1.174 5.72v14.635h-5.209v-3.557Zm-5.356-1.081c.856 0 1.687-.225 2.494-.676.832-.45 1.517-1.125 2.055-2.026.538-.9.807-1.967.807-3.198v-.18h-4.88c-1.173 0-2.054.286-2.64.856-.563.57-.844 1.32-.844 2.252 0 .9.256 1.62.77 2.161.538.54 1.284.81 2.238.81Zm21.396-15.131v19.77h-5.209v-19.77h-2.311v-5.18h2.311v-1.26c0-3.063.709-5.314 2.128-6.755 1.418-1.441 3.558-2.117 6.42-2.027v5.314c-1.247-.03-2.116.225-2.605.766-.489.54-.734 1.516-.734 2.927v1.036h6.675v-6.17h5.173v6.17h4.549v5.179h-4.549v12.069c0 .84.159 1.456.477 1.846.342.36.905.54 1.687.54h2.385v5.314h-3.229c-4.328 0-6.493-2.582-6.493-7.746V16.294h-6.675Z"/></svg>