<svg width="137" height="37" viewBox="0 0 137 37" fill="none" xmlns="http://www.w3.org/2000/svg">
<path d="M5.27266 14.7623C5.93299 13.5614 6.8379 12.5857 7.98737 11.8351C9.1613 11.0846 10.4942 10.7093 11.9861 10.7093C13.7225 10.7093 15.2877 11.2347 16.6818 12.2855C18.1003 13.3363 19.2131 14.8374 20.0201 16.7889C20.8517 18.7103 21.2674 20.947 21.2674 23.4989C21.2674 26.0508 20.8517 28.3175 20.0201 30.299C19.2131 32.2504 18.1003 33.7666 16.6818 34.8474C15.2877 35.9282 13.7225 36.4686 11.9861 36.4686C10.4697 36.4686 9.13684 36.1083 7.98737 35.3878C6.86235 34.6372 5.95745 33.6765 5.27266 32.5056V36.0633H0.136719V2.73832H5.27266V14.7623ZM16.0214 23.4989C16.0214 21.9978 15.7646 20.7068 15.2511 19.626C14.7619 18.5151 14.1016 17.6745 13.27 17.1041C12.4675 16.535 11.5555 16.2397 10.6287 16.2484C9.69935 16.2484 8.8189 16.5487 7.98737 17.1491C7.18029 17.7196 6.51996 18.5602 6.00636 19.671C5.51723 20.7818 5.27266 22.0878 5.27266 23.589C5.27266 25.0901 5.51723 26.3961 6.00636 27.5069C6.51996 28.6177 7.18029 29.4734 7.98737 30.0738C8.8189 30.6442 9.69935 30.9295 10.6287 30.9295C11.5825 30.9295 12.463 30.6292 13.27 30.0288C14.1016 29.4283 14.7619 28.5727 15.2511 27.4619C15.7646 26.351 16.0214 25.03 16.0214 23.4989ZM27.6038 8.14237C26.6989 8.14237 25.9407 7.79711 25.3293 7.1066C24.7423 6.38606 24.4489 5.50039 24.4489 4.4496C24.4489 3.39882 24.7423 2.52816 25.3293 1.83765C25.9407 1.11711 26.6989 0.756836 27.6038 0.756836C28.5087 0.756836 29.2546 1.11711 29.8416 1.83765C30.453 2.52816 30.7587 3.39882 30.7587 4.4496C30.7587 5.50039 30.453 6.38606 29.8416 7.1066C29.2546 7.79711 28.5087 8.14237 27.6038 8.14237ZM30.1351 11.1146V36.0633H24.9991V11.1146H30.1351ZM47.2427 36.0633L40.3458 25.4353V36.0633H35.2099V2.73832H40.3458V21.6975L47.1693 11.1146H53.846L44.8948 23.634L53.9194 36.0633H47.2427ZM54.2934 23.589C54.2934 21.007 54.7214 18.7553 55.5773 16.8339C56.4333 14.8824 57.6195 13.3813 59.1358 12.3305C60.6521 11.2497 62.3886 10.7093 64.3451 10.7093C66.8642 10.7093 68.943 11.4899 70.5816 13.0511C72.2447 14.5822 73.3575 16.7438 73.92 19.5359H68.3815C68.088 18.4551 67.5867 17.6145 66.8774 17.014C66.1926 16.3835 65.3366 16.0683 64.3095 16.0683C62.842 16.0683 61.6803 16.7288 60.8244 18.0498C59.9684 19.3408 59.5404 21.1872 59.5404 23.589C59.5404 25.9607 59.9684 27.8071 60.8244 29.1281C61.6803 30.4191 62.842 31.0646 64.3095 31.0646C66.3883 31.0646 67.7456 29.9237 68.3815 27.642H73.921C73.3585 30.344 72.2457 32.4906 70.5826 34.0818C68.9196 35.673 66.8407 36.4686 64.3461 36.4686C62.3896 36.4686 60.6532 35.9432 59.1368 34.8924C57.6325 33.8269 56.4002 32.2673 55.5784 30.389C54.7224 28.4376 54.2934 26.1709 54.2934 23.589ZM81.8002 14.9875C82.4299 13.7034 83.3131 12.6347 84.3681 11.8802C85.4443 11.1296 86.6671 10.7543 88.0367 10.7543V17.3743H86.6793C85.0652 17.3743 83.8423 17.8396 83.0108 18.7703C82.2037 19.701 81.8002 21.3223 81.8002 23.634V36.0633H76.6642V11.1146H81.8002V14.9875ZM103.785 32.5056C103.222 33.6465 102.305 34.6072 101.033 35.3878C99.7617 36.1384 98.3921 36.5136 96.9247 36.5136C95.653 36.5136 94.5035 36.1984 93.4763 35.5679C92.4491 34.9375 91.642 34.0668 91.0551 32.956C90.4681 31.8451 90.1746 30.5692 90.1746 29.1281C90.1746 26.8164 90.8716 24.925 92.2657 23.4538C93.6842 21.9827 95.7997 21.2472 98.6122 21.2472H103.785C103.736 19.656 103.357 18.3951 102.648 17.4644C101.963 16.5036 101.009 16.0233 99.7862 16.0233C98.7101 16.0233 97.8174 16.3835 97.1081 17.1041C96.3989 17.7946 95.9464 18.7703 95.7508 20.0313H90.6148C90.8594 18.2299 91.3852 16.6237 92.1923 15.2127C93.0166 13.7791 94.1287 12.6311 95.4206 11.8802C96.7657 11.0696 98.2698 10.6643 99.9329 10.6643C101.645 10.6643 103.186 11.0996 104.555 11.9702C105.916 12.802 107.05 14.1005 107.82 15.708C108.603 17.3293 108.994 19.2357 108.994 21.4273V36.0633H103.785V32.5056ZM98.4288 31.4248C99.2848 31.4248 100.116 31.1997 100.923 30.7493C101.755 30.299 102.44 29.6235 102.978 28.7228C103.516 27.8221 103.785 26.7563 103.785 25.5254V25.3453H98.9057C97.7318 25.3453 96.8513 25.6305 96.2644 26.2009C95.7019 26.7713 95.4206 27.5219 95.4206 28.4526C95.4206 29.3533 95.6774 30.0738 96.191 30.6142C96.7291 31.1546 97.475 31.4248 98.4288 31.4248ZM119.825 16.2935V36.0633H114.616V16.2935H112.305V11.1146H114.616V9.85365C114.616 6.79136 115.325 4.53967 116.744 3.09859C118.162 1.65751 120.302 0.982005 123.164 1.07207V6.38606C121.917 6.35603 121.048 6.61122 120.559 7.15163C120.07 7.69203 119.825 8.66777 119.825 10.0788V11.1146H126.5V4.94498H131.673V11.1146H136.222V16.2935H131.673V28.3625C131.673 29.2032 131.832 29.8186 132.15 30.2089C132.492 30.5692 133.055 30.7493 133.837 30.7493H136.222V36.0633H132.993C128.665 36.0633 126.5 33.4814 126.5 28.3175V16.2935H119.825Z" fill="white"/>
</svg>
