<svg width="32" height="32" viewBox="0 0 32 32" fill="none" xmlns="http://www.w3.org/2000/svg">
<path d="M22.6667 22.6532C20.8667 22.6532 19.7334 23.2132 18.7334 23.7199C17.8667 24.1599 17.1601 24.5199 16.0001 24.5199C14.8001 24.5199 14.1334 24.1866 13.2667 23.7199C12.2667 23.2132 11.1734 22.6532 9.33341 22.6532C7.49341 22.6532 6.40008 23.2132 5.40008 23.7199C4.82675 24.0132 4.32008 24.2665 3.70675 24.4132C3.10675 24.5465 2.66675 25.0265 2.66675 25.6265V25.7599C2.66675 26.5599 3.41341 27.1332 4.18675 26.9732C5.17341 26.7732 5.92008 26.3999 6.60008 26.0532C7.46675 25.6132 8.16008 25.2532 9.33341 25.2532C10.5067 25.2532 11.2001 25.5865 12.0667 26.0532C13.0667 26.5599 14.1601 27.1199 16.0001 27.1199C17.8401 27.1199 18.9334 26.5599 19.9334 26.0532C20.8001 25.6132 21.5067 25.2532 22.6667 25.2532C23.8667 25.2532 24.5334 25.5865 25.4001 26.0532C26.0934 26.3999 26.8401 26.7865 27.8401 26.9865C28.0202 27.0217 28.2059 27.0169 28.3839 26.9724C28.562 26.9279 28.7281 26.8449 28.8705 26.7292C29.013 26.6134 29.1283 26.4678 29.2082 26.3026C29.2882 26.1375 29.331 25.9567 29.3334 25.7732V25.6532C29.3334 25.0399 28.8801 24.5599 28.2801 24.4265C27.6667 24.2932 27.1734 24.0399 26.6001 23.7332C25.6001 23.2132 24.4667 22.6532 22.6667 22.6532ZM22.6667 16.7199C20.8667 16.7199 19.7334 17.2932 18.7334 17.7865C17.8667 18.2132 17.1601 18.5865 16.0001 18.5865C14.8001 18.5865 14.1334 18.2532 13.2667 17.7865C12.2667 17.2799 11.1734 16.7199 9.33341 16.7199C7.49341 16.7199 6.40008 17.2932 5.40008 17.7865C4.82675 18.0665 4.32008 18.3332 3.69341 18.4799C3.10675 18.6132 2.66675 19.0932 2.66675 19.6932V19.8265C2.66682 20.0108 2.70798 20.1928 2.78722 20.3592C2.86645 20.5256 2.98178 20.6722 3.12481 20.7884C3.26784 20.9046 3.43498 20.9875 3.61406 21.031C3.79315 21.0745 3.97968 21.0775 4.16008 21.0399C5.16008 20.8399 5.90675 20.4532 6.60008 20.1199C7.46675 19.6532 8.13341 19.3199 9.33341 19.3199C10.5334 19.3199 11.2001 19.6532 12.0667 20.1199C13.0667 20.6265 14.1601 21.1865 16.0001 21.1865C17.8401 21.1865 18.9334 20.6132 19.9334 20.1199C20.8001 19.6532 21.4667 19.3199 22.6667 19.3199C23.8667 19.3199 24.5334 19.6532 25.4001 20.1199C26.0934 20.4665 26.8401 20.8532 27.8401 21.0532C28.0213 21.0886 28.2081 21.0835 28.3871 21.0382C28.5661 20.993 28.7329 20.9088 28.8756 20.7916C29.0183 20.6744 29.1333 20.5271 29.2125 20.3603C29.2916 20.1934 29.3329 20.0112 29.3334 19.8265V19.7065C29.3334 19.0932 28.8801 18.6132 28.2801 18.4799C27.6667 18.3465 27.1734 18.0932 26.6001 17.7865C25.6001 17.2799 24.4667 16.7199 22.6667 16.7199ZM26.6001 5.94655C25.6001 5.43988 24.4934 4.87988 22.6667 4.87988C20.8401 4.87988 19.7334 5.43988 18.7334 5.94655C17.8667 6.37322 17.1601 6.74655 16.0001 6.74655C14.8001 6.74655 14.1334 6.41322 13.2667 5.94655C12.2667 5.45322 11.1734 4.87988 9.33341 4.87988C7.49341 4.87988 6.40008 5.43988 5.40008 5.94655C4.82675 6.23988 4.32008 6.49322 3.70675 6.63988C3.10675 6.77322 2.66675 7.25322 2.66675 7.85322V7.94655C2.66675 8.74655 3.38675 9.33322 4.16008 9.17322C5.16008 8.97322 5.90675 8.58655 6.60008 8.25322C7.46675 7.81322 8.16008 7.45322 9.33341 7.45322C10.5067 7.45322 11.2001 7.78655 12.0667 8.25322C13.0667 8.75988 14.1601 9.31988 16.0001 9.31988C17.8401 9.31988 18.9334 8.74655 19.9334 8.25322C20.8001 7.82655 21.5067 7.45322 22.6667 7.45322C23.8667 7.45322 24.5334 7.78655 25.4001 8.25322C26.0934 8.59988 26.8401 8.98655 27.8401 9.18655C28.0213 9.22191 28.2081 9.21679 28.3871 9.17155C28.5661 9.12632 28.7329 9.04209 28.8756 8.92489C29.0183 8.80769 29.1333 8.66042 29.2125 8.49359C29.2916 8.32677 29.3329 8.14452 29.3334 7.95988V7.83988C29.3334 7.22655 28.8801 6.74655 28.2801 6.61322C27.6667 6.47988 27.1734 6.23988 26.6001 5.94655ZM22.6667 10.7865C20.8667 10.7865 19.7334 11.3599 18.7334 11.8532C17.8667 12.3199 17.2001 12.6532 16.0001 12.6532C14.8001 12.6532 14.1334 12.3199 13.2667 11.8532C12.2667 11.3465 11.1734 10.7865 9.33341 10.7865C7.49341 10.7865 6.40008 11.3599 5.40008 11.8532C4.82675 12.1599 4.33341 12.4132 3.72008 12.5465C3.12008 12.6799 2.66675 13.1599 2.66675 13.7732V13.8932C2.66682 14.0775 2.70798 14.2595 2.78722 14.4259C2.86645 14.5922 2.98178 14.7389 3.12481 14.8551C3.26784 14.9713 3.43498 15.0542 3.61406 15.0977C3.79315 15.1412 3.97968 15.1442 4.16008 15.1065C5.16008 14.9065 5.90675 14.5199 6.60008 14.1865C7.46675 13.7599 8.17341 13.3865 9.33341 13.3865C10.4934 13.3865 11.2001 13.7199 12.0667 14.1865C13.0667 14.6932 14.1601 15.2532 16.0001 15.2532C17.8401 15.2532 18.9334 14.6799 19.9334 14.1865C20.8001 13.7599 21.5067 13.3865 22.6667 13.3865C23.8667 13.3865 24.5334 13.7199 25.4001 14.1865C26.0934 14.5332 26.8401 14.9199 27.8401 15.1199C28.0202 15.155 28.2059 15.1502 28.3839 15.1057C28.562 15.0613 28.7281 14.9782 28.8705 14.8625C29.013 14.7468 29.1283 14.6012 29.2082 14.436C29.2882 14.2708 29.331 14.0901 29.3334 13.9065V13.7865C29.3334 13.1732 28.8801 12.6932 28.2801 12.5599C27.6667 12.4265 27.1734 12.1732 26.6001 11.8665C25.6001 11.3465 24.4667 10.7865 22.6667 10.7865Z" fill="url(#paint0_linear_41_260)"/>
<defs>
<linearGradient id="paint0_linear_41_260" x1="16.0001" y1="4.87988" x2="16.0001" y2="27.1199" gradientUnits="userSpaceOnUse">
<stop stop-color="#FFBF00"/>
<stop offset="1" stop-color="#F2A60C"/>
</linearGradient>
</defs>
</svg>
