<svg width="32" height="32" viewBox="0 0 32 32" fill="none" xmlns="http://www.w3.org/2000/svg">
<path d="M25.6133 13.3333C25.4817 13.5277 25.4038 13.7534 25.3875 13.9875C25.3711 14.2216 25.4168 14.4559 25.5199 14.6667C25.8506 15.4387 26.0839 16.2493 26.2133 17.08C26.5565 19.2269 26.2355 21.4273 25.2933 23.3867C25.1788 23.6016 25.0077 23.7811 24.7986 23.9056C24.5894 24.0302 24.3501 24.0951 24.1066 24.0933H7.23992C6.99509 24.0938 6.75483 24.0269 6.54551 23.8999C6.33619 23.7729 6.16588 23.5907 6.05326 23.3733C5.19976 21.6419 4.83211 19.7113 4.9895 17.7874C5.14689 15.8635 5.82342 14.0183 6.94696 12.4487C8.07051 10.879 9.59896 9.64362 11.3694 8.87426C13.1398 8.1049 15.0858 7.8304 16.9999 8.08C17.9684 8.19384 18.9158 8.44526 19.8133 8.82667C20.0241 8.92983 20.2583 8.97553 20.4925 8.95914C20.7266 8.94275 20.9522 8.86486 21.1466 8.73334C21.3491 8.59993 21.5114 8.41382 21.616 8.19504C21.7206 7.97626 21.7635 7.73309 21.7402 7.49172C21.7169 7.25034 21.6282 7.01989 21.4837 6.82518C21.3391 6.63046 21.1442 6.47886 20.9199 6.38667C18.3442 5.28221 15.4859 5.01745 12.7511 5.63C10.0164 6.24255 7.54411 7.70126 5.6856 9.79891C3.82708 11.8966 2.67679 14.5265 2.39812 17.3152C2.11945 20.1038 2.72658 22.9094 4.13326 25.3333C4.36594 25.7364 4.70004 26.0715 5.10236 26.3054C5.50469 26.5393 5.96122 26.6639 6.42659 26.6667H24.8933C25.3631 26.6685 25.8252 26.5462 26.2326 26.3121C26.64 26.0779 26.9783 25.7403 27.2133 25.3333C28.2431 23.5486 28.8453 21.5494 28.9725 19.4928C29.0997 17.4362 28.7486 15.3781 27.9466 13.48C27.845 13.2637 27.6872 13.0786 27.4896 12.9442C27.2919 12.8098 27.0618 12.731 26.8233 12.716C26.5848 12.701 26.3467 12.7504 26.1338 12.859C25.9209 12.9676 25.7411 13.1314 25.6133 13.3333Z" fill="url(#paint0_linear_41_282)"/>
<path d="M13.7867 16.7866C13.2864 17.2869 13.0052 17.9656 13.0052 18.6732C13.0052 19.0236 13.0743 19.3706 13.2083 19.6943C13.3424 20.018 13.539 20.3121 13.7867 20.5599C14.0345 20.8077 14.3286 21.0042 14.6523 21.1383C14.9761 21.2724 15.323 21.3414 15.6734 21.3414C16.381 21.3414 17.0597 21.0603 17.5601 20.5599L25.1067 9.2399L13.7867 16.7866Z" fill="url(#paint1_linear_41_282)"/>
<defs>
<linearGradient id="paint0_linear_41_282" x1="15.665" y1="5.30762" x2="15.665" y2="26.6667" gradientUnits="userSpaceOnUse">
<stop stop-color="#FFBF00"/>
<stop offset="1" stop-color="#F2A60C"/>
</linearGradient>
<linearGradient id="paint1_linear_41_282" x1="19.056" y1="9.2399" x2="19.056" y2="21.3414" gradientUnits="userSpaceOnUse">
<stop stop-color="#FFBF00"/>
<stop offset="1" stop-color="#F2A60C"/>
</linearGradient>
</defs>
</svg>
