<svg width="32" height="32" viewBox="0 0 32 32" fill="none" xmlns="http://www.w3.org/2000/svg">
<path d="M23.9999 12.6667H22.6666V10C22.6666 6.32001 19.6799 3.33334 15.9999 3.33334C12.3199 3.33334 9.33325 6.32001 9.33325 10V12.6667H7.99992C6.53325 12.6667 5.33325 13.8667 5.33325 15.3333V28.6667C5.33325 30.1333 6.53325 31.3333 7.99992 31.3333H23.9999C25.4666 31.3333 26.6666 30.1333 26.6666 28.6667V15.3333C26.6666 13.8667 25.4666 12.6667 23.9999 12.6667ZM15.9999 24.6667C14.5333 24.6667 13.3333 23.4667 13.3333 22C13.3333 20.5333 14.5333 19.3333 15.9999 19.3333C17.4666 19.3333 18.6666 20.5333 18.6666 22C18.6666 23.4667 17.4666 24.6667 15.9999 24.6667ZM11.9999 12.6667V10C11.9999 7.78668 13.7866 6.00001 15.9999 6.00001C18.2133 6.00001 19.9999 7.78668 19.9999 10V12.6667H11.9999Z" fill="url(#paint0_linear_41_277)"/>
<defs>
<linearGradient id="paint0_linear_41_277" x1="15.9999" y1="3.33334" x2="15.9999" y2="31.3333" gradientUnits="userSpaceOnUse">
<stop stop-color="#FFBF00"/>
<stop offset="1" stop-color="#F2A60C"/>
</linearGradient>
</defs>
</svg>
