<svg width="32" height="32" viewBox="0 0 32 32" fill="none" xmlns="http://www.w3.org/2000/svg">
<path d="M15.6667 10.6666C12.72 10.6666 10.3333 13.0533 10.3333 15.9999C10.3333 18.9466 12.72 21.3333 15.6667 21.3333C18.6133 21.3333 21 18.9466 21 15.9999C21 13.0533 18.6133 10.6666 15.6667 10.6666ZM27.5867 14.6666C27.2847 11.9627 26.0722 9.44197 24.1484 7.51818C22.2246 5.59438 19.7038 4.38193 17 4.07992V2.66659C17 1.93325 16.4 1.33325 15.6667 1.33325C14.9333 1.33325 14.3333 1.93325 14.3333 2.66659V4.07992C11.6295 4.38193 9.10872 5.59438 7.18493 7.51818C5.26113 9.44197 4.04868 11.9627 3.74667 14.6666H2.33333C1.6 14.6666 1 15.2666 1 15.9999C1 16.7333 1.6 17.3333 2.33333 17.3333H3.74667C4.04868 20.0371 5.26113 22.5579 7.18493 24.4817C9.10872 26.4055 11.6295 27.6179 14.3333 27.9199V29.3333C14.3333 30.0666 14.9333 30.6666 15.6667 30.6666C16.4 30.6666 17 30.0666 17 29.3333V27.9199C19.7038 27.6179 22.2246 26.4055 24.1484 24.4817C26.0722 22.5579 27.2847 20.0371 27.5867 17.3333H29C29.7333 17.3333 30.3333 16.7333 30.3333 15.9999C30.3333 15.2666 29.7333 14.6666 29 14.6666H27.5867ZM15.6667 25.3333C10.5067 25.3333 6.33333 21.1599 6.33333 15.9999C6.33333 10.8399 10.5067 6.66659 15.6667 6.66659C20.8267 6.66659 25 10.8399 25 15.9999C25 21.1599 20.8267 25.3333 15.6667 25.3333Z" fill="url(#paint0_linear_41_272)"/>
<defs>
<linearGradient id="paint0_linear_41_272" x1="15.6667" y1="1.33325" x2="15.6667" y2="30.6666" gradientUnits="userSpaceOnUse">
<stop stop-color="#FFBF00"/>
<stop offset="1" stop-color="#F2A60C"/>
</linearGradient>
</defs>
</svg>
