<svg width="32" height="30" viewBox="0 0 32 30" fill="none" xmlns="http://www.w3.org/2000/svg">
<path d="M25.3333 8.33331H24.24L21.9733 2.09331C21.7857 1.57878 21.4448 1.13418 20.9965 0.819468C20.5483 0.504756 20.0143 0.335075 19.4667 0.333313H17.3333C16.6 0.333313 16 0.933313 16 1.66665C16 2.39998 16.6 2.99998 17.3333 2.99998H19.4667L21.4133 8.33331H15L14.52 6.99998H14.64C15.3733 6.99998 15.9733 6.39998 15.9733 5.66665C15.9733 4.93331 15.3733 4.33331 14.64 4.33331H10.6667C9.93333 4.33331 9.33333 4.93331 9.33333 5.66665C9.33333 6.39998 9.93333 6.99998 10.6667 6.99998H11.6667L14.0933 13.6666H13.2C12.6133 10.6933 10.12 8.49331 7 8.34665C3.26667 8.15998 0 11.2666 0 15C0 18.7333 2.93333 21.6666 6.66667 21.6666C9.94667 21.6666 12.6 19.4133 13.2 16.3333H18.8C19.3867 19.3066 21.88 21.5066 25 21.6533C28.7333 21.8266 32 18.7333 32 14.9866C32 11.2666 29.0667 8.33331 25.3333 8.33331ZM8 16.3333H10.4267C9.86667 17.9733 8.29333 19.1066 6.4 18.9866C4.41333 18.8666 2.76 17.1866 2.66667 15.1866C2.57333 12.8533 4.36 11 6.66667 11C8.44 11 9.89333 12.1066 10.4267 13.6666H8C7.26667 13.6666 6.66667 14.2666 6.66667 15C6.66667 15.7333 7.26667 16.3333 8 16.3333ZM18.8 13.6666H16.9333L15.96 11H20C19.4133 11.7733 18.9867 12.6666 18.8 13.6666ZM25.1733 19C23.12 18.92 21.3867 17.1733 21.3333 15.1066C21.3067 13.8266 21.8533 12.7066 22.7333 11.96L23.56 14.2266C23.8133 14.92 24.5733 15.28 25.2667 15.0266C25.96 14.7733 26.32 14.0133 26.0667 13.32L25.2267 11.0133L25.24 11C25.7746 10.9818 26.3073 11.072 26.806 11.2654C27.3047 11.4588 27.7591 11.7512 28.1416 12.1251C28.5242 12.4989 28.827 12.9464 29.0319 13.4405C29.2367 13.9346 29.3392 14.4651 29.3333 15C29.3333 17.2933 27.4933 19.08 25.1733 19ZM14.6667 25.6666H9.33333L17.3333 29.6666V27H22.6667L14.6667 23V25.6666Z" fill="url(#paint0_linear_41_250)"/>
<defs>
<linearGradient id="paint0_linear_41_250" x1="16" y1="0.333313" x2="16" y2="29.6666" gradientUnits="userSpaceOnUse">
<stop stop-color="#FFBF00"/>
<stop offset="1" stop-color="#F2A60C"/>
</linearGradient>
</defs>
</svg>
