<svg width="22" height="22" viewBox="0 0 22 22" fill="none" xmlns="http://www.w3.org/2000/svg">
<path d="M3.39977 5.73321C1.65415 7.47913 0.671277 9.84549 0.666279 12.3144C0.661281 14.7833 1.63456 17.1536 3.3731 18.9065C5.3331 14.3732 8.82644 10.5865 13.1864 8.33321C9.42319 11.5174 6.88286 15.91 5.99977 20.7599C9.46644 22.3999 13.7331 21.7999 16.5998 18.9332C20.5864 14.9465 21.7064 4.07988 21.9464 1.09321C21.9548 0.998312 21.9423 0.902734 21.9097 0.813203C21.8771 0.723672 21.8253 0.642364 21.758 0.575C21.6906 0.507636 21.6093 0.455852 21.5198 0.423293C21.4303 0.390734 21.3347 0.378191 21.2398 0.386545C18.2531 0.626545 7.38644 1.74655 3.39977 5.73321Z" fill="url(#paint0_linear_41_270)"/>
<defs>
<linearGradient id="paint0_linear_41_270" x1="11.3076" y1="0.384033" x2="11.3076" y2="21.6591" gradientUnits="userSpaceOnUse">
<stop stop-color="#FFBF00"/>
<stop offset="1" stop-color="#F2A60C"/>
</linearGradient>
</defs>
</svg>
